<?xml version="1.0" standalone="no"?>
<!DOCTYPE svg PUBLIC "-//W3C//DTD SVG 20010904//EN"
 "http://www.w3.org/TR/2001/REC-SVG-20010904/DTD/svg10.dtd">
<svg version="1.0" xmlns="http://www.w3.org/2000/svg"
 width="300.000000pt" height="242.000000pt" viewBox="0 0 300.000000 242.000000"
 preserveAspectRatio="xMidYMid meet">
<metadata>
Created by potrace 1.10, written by Peter Selinger 2001-2011
</metadata>
<g transform="translate(0.000000,242.000000) scale(0.100000,-0.100000)"
fill="#000000" stroke="none">
<path d="M1190 2407 c0 -22 -18 -31 -35 -17 -11 9 -19 9 -28 1 -10 -8 -17 -7
-25 1 -8 8 -15 8 -25 0 -10 -9 -16 -9 -25 0 -10 10 -17 10 -32 1 -14 -10 -20
-10 -23 0 -3 9 -9 9 -24 0 -16 -9 -23 -8 -36 4 -13 13 -19 14 -31 3 -12 -9
-19 -10 -30 -1 -10 9 -16 8 -26 -3 -9 -12 -15 -13 -31 -3 -16 10 -21 9 -29 -2
-7 -12 -11 -13 -25 -1 -11 9 -19 10 -27 2 -8 -8 -16 -7 -29 1 -14 9 -21 9 -30
0 -9 -9 -16 -9 -29 0 -14 8 -22 8 -32 -1 -10 -8 -18 -8 -25 -1 -8 8 -17 8 -32
0 -12 -7 -21 -8 -21 -3 0 5 -38 8 -85 7 -47 -1 -85 2 -85 6 0 10 -70 7 -87 -4
-7 -4 -21 -3 -32 3 -12 6 -22 6 -25 1 -7 -10 -82 -9 -92 2 -4 4 -13 2 -20 -4
-8 -6 -19 -7 -26 -2 -16 10 -88 12 -88 2 0 -12 29 -19 77 -19 26 0 44 -3 40
-6 -3 -3 -26 -6 -52 -6 -26 0 -45 -2 -42 -4 2 -2 69 -5 148 -7 79 -1 149 -6
155 -9 6 -4 25 2 42 13 18 10 37 19 42 19 17 0 11 -18 -7 -23 -10 -2 14 -4 52
-5 39 -1 93 -3 120 -4 28 -2 64 -1 81 3 17 3 39 2 48 -3 11 -6 27 -6 45 0 20
7 32 7 40 -1 7 -7 17 -7 33 1 22 11 22 11 -3 6 -15 -3 -30 -1 -33 5 -5 7 6 12
31 13 21 0 52 2 68 4 43 3 86 -6 79 -17 -3 -6 -11 -5 -20 2 -11 9 -21 9 -39 1
-14 -6 -33 -9 -42 -6 -17 5 -17 5 -1 -6 13 -8 23 -8 38 0 13 7 26 7 38 1 11
-6 24 -6 36 1 10 5 26 8 36 5 11 -3 18 -1 17 3 -1 4 3 8 8 8 6 0 9 -3 8 -8 -1
-4 25 -6 58 -5 32 2 61 -1 64 -4 4 -8 34 -7 185 5 52 4 109 7 125 6 111 -6
355 -3 366 4 18 11 239 12 246 2 2 -5 13 -6 24 -3 11 4 75 6 142 6 302 -1 369
-1 376 4 5 2 32 0 62 -4 30 -5 58 -6 63 -3 5 3 62 5 127 6 95 0 119 3 119 14
0 10 -7 12 -22 9 -12 -4 -28 -1 -35 5 -10 8 -17 8 -25 0 -17 -17 -31 -15 -24
3 7 19 -8 19 -24 0 -9 -10 -27 -13 -66 -10 -29 2 -56 -1 -60 -6 -4 -6 -11 -6
-20 2 -11 9 -18 9 -26 1 -9 -9 -16 -8 -30 5 -16 15 -20 15 -35 0 -16 -14 -19
-14 -32 0 -13 14 -16 14 -27 -2 -10 -13 -17 -15 -26 -7 -14 11 -66 11 -85 -1
-7 -4 -21 -2 -32 5 -15 9 -23 9 -34 0 -11 -10 -17 -9 -27 3 -8 10 -16 12 -24
6 -7 -6 -21 -8 -33 -5 -11 3 -24 1 -28 -6 -5 -8 -10 -8 -21 1 -7 6 -21 8 -30
5 -9 -4 -23 -1 -30 5 -11 9 -17 9 -28 0 -7 -6 -21 -9 -30 -5 -9 3 -23 1 -31
-6 -13 -11 -18 -10 -30 6 -11 16 -17 17 -33 7 -14 -8 -22 -9 -30 -1 -8 8 -15
8 -27 -2 -11 -9 -18 -10 -29 -1 -8 7 -17 8 -20 3 -4 -8 -124 -9 -151 -1 -5 1
-18 -1 -28 -6 -11 -4 -23 -3 -30 4 -8 8 -15 6 -29 -6 -15 -13 -20 -14 -34 -3
-13 12 -17 11 -26 -1 -7 -11 -11 -11 -15 -1 -2 6 -13 12 -23 12 -10 0 -21 -6
-24 -12 -3 -9 -8 -8 -16 5 -11 17 -13 17 -30 2 -17 -15 -19 -15 -28 1 -7 12
-15 15 -28 9 -11 -4 -29 -7 -41 -6 -13 1 -23 -2 -23 -8 0 -19 -18 -12 -25 9
-8 26 -21 25 -30 -2 l-8 -23 -4 23 c-6 28 -39 30 -48 2 -7 -23 -16 -25 -33 -8
-8 8 -15 8 -27 -2 -13 -11 -18 -9 -35 10 -15 18 -20 19 -20 7z m149 -29 c12
-16 11 -18 -13 -18 -23 0 -25 2 -14 20 7 10 13 18 13 17 0 -1 7 -10 14 -19z
m-974 3 c3 -6 -3 -15 -14 -21 -14 -7 -22 -7 -27 1 -3 6 -20 9 -38 6 -17 -3
-40 -2 -51 2 -14 6 -1 9 39 9 32 1 61 4 64 7 8 8 20 6 27 -4z m110 -11 c-3 -5
-11 -10 -16 -10 -6 0 -7 5 -4 10 3 6 11 10 16 10 6 0 7 -4 4 -10z m103 -6
c-10 -10 -21 -13 -29 -8 -12 7 0 14 41 23 2 1 -3 -6 -12 -15z m188 3 c10 -9
-48 -18 -60 -8 -7 6 -26 7 -51 1 -40 -9 -73 -1 -41 10 21 7 144 5 152 -3z
m434 -7 c-19 -12 -30 -12 -30 -1 0 10 31 20 40 14 2 -2 -2 -8 -10 -13z m360
16 c0 -2 -7 -7 -16 -10 -8 -3 -12 -2 -9 4 6 10 25 14 25 6z m55 -6 c-3 -5 -16
-10 -28 -9 -21 0 -21 1 -2 9 28 12 37 12 30 0z m199 1 c3 -4 -6 -6 -19 -3 -14
2 -25 6 -25 8 0 8 39 4 44 -5z m-691 -8 c-7 -2 -19 -2 -25 0 -7 3 -2 5 12 5
14 0 19 -2 13 -5z m138 -4 c-16 -6 -28 -6 -35 1 -7 7 1 10 25 9 32 0 33 -1 10
-10z"/>
<path d="M773 2323 c48 -2 126 -2 175 0 48 1 8 3 -88 3 -96 0 -136 -2 -87 -3z"/>
<path d="M1180 2319 c0 -5 9 -9 20 -9 11 0 20 2 20 4 0 2 -9 6 -20 9 -11 3
-20 1 -20 -4z"/>
<path d="M1283 2323 c26 -2 68 -2 95 0 26 2 4 3 -48 3 -52 0 -74 -1 -47 -3z"/>
<path d="M2103 2323 c9 -2 25 -2 35 0 9 3 1 5 -18 5 -19 0 -27 -2 -17 -5z"/>
<path d="M2378 2323 c117 -2 306 -2 420 0 114 1 18 2 -213 2 -231 0 -324 -1
-207 -2z"/>
<path d="M498 2313 c34 -2 90 -2 125 0 34 2 6 3 -63 3 -69 0 -97 -1 -62 -3z"/>
<path d="M1093 2313 c15 -2 39 -2 55 0 15 2 2 4 -28 4 -30 0 -43 -2 -27 -4z"/>
<path d="M1458 2313 c12 -2 30 -2 40 0 9 3 -1 5 -23 4 -22 0 -30 -2 -17 -4z"/>
<path d="M1618 2313 c56 -2 148 -2 205 0 56 1 10 3 -103 3 -113 0 -159 -2
-102 -3z"/>
<path d="M1968 2313 c23 -2 59 -2 80 0 20 2 1 4 -43 4 -44 0 -61 -2 -37 -4z"/>
<path d="M38 2303 c6 -2 18 -2 25 0 6 3 1 5 -13 5 -14 0 -19 -2 -12 -5z"/>
<path d="M123 2303 c15 -2 37 -2 50 0 12 2 0 4 -28 4 -27 0 -38 -2 -22 -4z"/>
<path d="M630 2290 c0 -5 5 -10 11 -10 5 0 7 5 4 10 -3 6 -8 10 -11 10 -2 0
-4 -4 -4 -10z"/>
<path d="M68 2283 c23 -2 59 -2 80 0 20 2 1 4 -43 4 -44 0 -61 -2 -37 -4z"/>
<path d="M218 2283 c6 -2 18 -2 25 0 6 3 1 5 -13 5 -14 0 -19 -2 -12 -5z"/>
<path d="M723 2283 c9 -2 23 -2 30 0 6 3 -1 5 -18 5 -16 0 -22 -2 -12 -5z"/>
<path d="M783 2283 c9 -2 23 -2 30 0 6 3 -1 5 -18 5 -16 0 -22 -2 -12 -5z"/>
<path d="M888 2283 c12 -2 32 -2 45 0 12 2 2 4 -23 4 -25 0 -35 -2 -22 -4z"/>
<path d="M968 2283 c7 -3 16 -2 19 1 4 3 -2 6 -13 5 -11 0 -14 -3 -6 -6z"/>
<path d="M1185 2280 c-3 -5 -2 -10 4 -10 5 0 13 5 16 10 3 6 2 10 -4 10 -5 0
-13 -4 -16 -10z"/>
<path d="M1308 2283 c12 -2 30 -2 40 0 9 3 -1 5 -23 4 -22 0 -30 -2 -17 -4z"/>
<path d="M2483 2283 c9 -2 25 -2 35 0 9 3 1 5 -18 5 -19 0 -27 -2 -17 -5z"/>
<path d="M2545 2280 c4 -6 11 -8 16 -5 14 9 11 15 -7 15 -8 0 -12 -5 -9 -10z"/>
<path d="M2620 2279 c0 -5 5 -7 10 -4 6 3 10 8 10 11 0 2 -4 4 -10 4 -5 0 -10
-5 -10 -11z"/>
<path d="M2693 2283 c26 -2 67 -2 90 0 23 2 2 3 -48 3 -49 0 -68 -1 -42 -3z"/>
<path d="M2868 2283 c7 -3 16 -2 19 1 4 3 -2 6 -13 5 -11 0 -14 -3 -6 -6z"/>
<path d="M1013 2273 c9 -2 23 -2 30 0 6 3 -1 5 -18 5 -16 0 -22 -2 -12 -5z"/>
<path d="M1083 2273 c15 -2 39 -2 55 0 15 2 2 4 -28 4 -30 0 -43 -2 -27 -4z"/>
<path d="M1418 2273 c26 -4 32 -9 32 -29 0 -19 -4 -24 -17 -20 -10 3 -61 12
-115 21 -75 13 -111 14 -165 6 -37 -5 -130 -8 -205 -6 -133 3 -137 3 -125 -16
7 -11 21 -22 32 -26 15 -6 9 -9 -25 -14 -37 -5 -31 -6 35 -7 44 -1 95 -6 114
-12 18 -5 53 -10 78 -11 71 -4 61 -19 -14 -21 -67 -1 -67 -1 -18 -7 l50 -6
-30 -12 c-16 -6 -80 -34 -142 -62 -89 -40 -124 -51 -170 -53 l-58 -2 48 -3 49
-4 -45 -39 c-47 -41 -100 -117 -112 -160 -7 -24 -7 -24 8 -5 8 11 13 23 11 27
-2 4 0 9 6 13 5 3 10 1 10 -5 0 -6 11 -3 26 6 23 16 26 16 41 1 14 -14 15 -20
4 -40 -9 -16 -19 -23 -31 -20 -10 3 -21 0 -24 -6 -4 -7 2 -12 16 -13 13 -2
-137 -5 -332 -8 l-355 -5 358 -3 c243 -1 357 -5 357 -13 0 -5 -4 -7 -10 -4 -6
4 -7 -1 -3 -10 3 -10 1 -20 -4 -24 -15 -9 -26 -51 -14 -51 5 0 12 8 14 18 3
10 5 6 6 -10 l1 -28 -189 0 c-105 0 -192 -3 -194 -7 -3 -5 81 -7 186 -5 139 3
189 0 181 -8 -7 -7 -106 -11 -300 -13 -159 -1 -260 -5 -224 -8 l65 -6 -72 -1
c-40 -1 -73 -6 -73 -10 0 -4 39 -5 88 -1 48 4 186 9 307 10 245 4 233 1 234
76 1 23 5 53 10 67 7 17 7 26 -1 28 -8 3 -3 17 12 39 26 37 130 139 139 136 9
-3 71 36 71 45 0 4 -8 5 -17 1 -17 -6 -16 -5 0 15 11 11 16 25 13 31 -4 5 14
24 39 41 25 17 43 36 39 41 -3 6 0 9 7 8 8 -1 43 12 79 28 36 17 80 34 97 38
49 10 50 25 1 24 -33 0 -38 -2 -23 -9 16 -7 17 -9 3 -9 -9 -1 -19 3 -22 8 -3
5 -39 9 -80 10 -75 1 -223 34 -241 53 -7 7 1 7 25 2 19 -5 131 -8 248 -6 118
2 212 0 212 -5 0 -5 16 -15 35 -22 19 -6 44 -24 56 -39 19 -24 19 -27 4 -30
-9 -2 -24 3 -33 11 -23 21 -72 39 -72 27 0 -6 6 -10 13 -10 7 0 21 -6 31 -13
21 -16 11 -47 -15 -47 -11 0 -37 -9 -58 -20 -21 -10 -41 -16 -44 -13 -4 3 -22
-6 -42 -21 -36 -28 -38 -27 -36 14 2 29 65 90 93 90 12 0 18 7 18 25 0 13 8
29 18 35 16 11 16 11 -1 6 -10 -3 -21 -6 -23 -6 -2 0 -4 -10 -4 -23 0 -17 -9
-26 -33 -35 -50 -18 -79 -54 -84 -106 -6 -48 4 -59 27 -30 8 8 22 20 33 26 20
10 20 10 0 -18 -32 -46 -65 -114 -60 -127 2 -7 12 6 21 28 26 61 65 112 103
135 38 23 53 26 35 8 -25 -25 -12 -35 58 -42 58 -6 73 -11 90 -33 11 -14 22
-24 23 -22 22 31 35 59 28 59 -6 0 -15 -9 -21 -20 -11 -21 -11 -21 -29 2 -15
18 -31 23 -85 26 -36 2 -66 8 -66 12 0 13 24 27 54 33 22 3 30 0 33 -13 6 -23
44 -33 78 -20 42 16 55 12 55 -15 0 -14 -4 -25 -9 -25 -5 0 -7 -9 -4 -20 3
-11 0 -33 -5 -50 -12 -32 -7 -60 10 -60 6 0 7 11 4 25 -5 21 -2 27 19 35 36
14 91 13 115 -2 14 -9 23 -9 30 -2 8 8 7 11 -2 11 -7 1 -28 7 -45 14 -25 10
-42 11 -73 3 -22 -6 -40 -9 -40 -6 0 11 24 88 29 93 3 4 26 9 51 12 25 3 39 4
33 1 -9 -4 -8 -15 7 -44 10 -20 16 -41 12 -45 -4 -5 -1 -5 6 -1 6 4 12 2 12
-3 0 -6 6 -11 14 -11 14 0 27 -34 32 -85 1 -16 8 -62 14 -102 12 -71 12 -72
-19 -134 -17 -34 -29 -64 -27 -66 5 -5 37 46 47 76 8 25 5 -25 -7 -104 -3 -24
-2 -26 5 -10 8 16 10 13 11 -20 1 -45 27 -168 30 -145 1 8 5 2 9 -15 4 -16 4
-32 0 -35 -3 -3 -9 -33 -12 -68 -4 -35 -11 -71 -17 -82 -16 -30 -12 -105 11
-164 26 -71 41 -81 34 -24 -5 37 -4 40 5 18 6 -14 9 -37 6 -52 -3 -15 -1 -30
5 -34 6 -3 98 -6 205 -5 135 2 194 -1 194 -9 0 -8 -56 -10 -185 -8 -101 2
-181 0 -177 -4 9 -9 624 -14 638 -5 5 3 77 7 159 8 113 1 150 -1 153 -11 9
-25 -25 -29 -201 -26 -111 3 -175 0 -169 -6 5 -5 87 -8 191 -6 151 3 181 1
179 -11 -2 -11 -23 -13 -93 -12 -286 6 -635 6 -635 0 0 -10 224 -20 303 -13
l74 6 6 -153 c3 -85 9 -163 13 -174 4 -11 -10 0 -31 24 -43 48 -180 119 -247
129 -37 5 -38 6 -38 47 0 38 -5 47 -50 88 -58 53 -107 66 -191 48 -52 -11 -68
-6 -69 22 0 4 128 6 284 5 156 -2 282 0 279 5 -2 4 -132 7 -289 7 l-285 0 3
-27 c3 -25 -3 -31 -46 -51 -46 -21 -54 -22 -100 -11 -28 7 -64 19 -80 27 l-30
14 25 14 24 13 -28 1 c-19 0 -26 -4 -21 -12 5 -8 0 -9 -17 -5 -13 4 -30 7 -36
7 -20 0 -15 34 8 64 11 14 16 26 10 26 -6 0 -17 -12 -25 -28 -8 -15 -15 -21
-16 -13 0 15 -42 -26 -60 -59 -17 -31 -26 -24 -40 28 -7 26 -17 51 -21 57 -12
12 -11 10 6 -55 18 -67 18 -70 3 -70 -15 0 -129 -69 -158 -95 -11 -10 -21 -16
-23 -14 -6 9 -29 76 -34 97 -3 12 -9 22 -14 22 -12 0 -12 1 16 -74 14 -37 23
-72 19 -77 -5 -8 -56 119 -81 202 -5 18 63 64 137 92 55 21 60 21 60 3 0 -7
-21 -21 -47 -31 -95 -35 -143 -58 -143 -67 0 -5 5 -6 10 -3 6 3 11 -4 11 -17
1 -19 2 -18 8 6 5 24 15 32 56 47 28 9 94 33 149 53 110 40 113 41 119 24 2
-7 3 -5 1 5 -1 11 6 21 19 26 20 8 92 40 110 49 16 8 6 -18 -17 -42 -27 -31
-36 -32 -37 -8 0 9 -3 12 -5 6 -2 -5 4 -37 14 -70 l19 -59 -1 54 c-1 35 3 55
12 58 7 3 12 -4 12 -16 0 -11 5 -23 10 -26 12 -8 13 -3 1 28 -5 13 -6 30 -1
37 6 9 12 5 24 -16 l17 -29 -6 30 c-4 17 -13 37 -21 46 -18 20 -18 128 0 152
7 9 22 17 33 17 11 0 32 9 47 21 29 23 29 22 17 -38 -5 -24 -5 -43 0 -43 9 0
18 65 18 120 -1 19 -9 67 -20 105 -15 55 -17 79 -9 105 12 43 13 57 1 44 -4
-5 -14 -30 -20 -55 -7 -26 -22 -59 -33 -75 -11 -16 -18 -21 -15 -12 23 69 33
149 28 218 -2 23 -3 23 -10 5 -5 -11 -11 -40 -14 -65 -5 -34 -4 -39 3 -20 7
19 8 13 4 -25 -6 -56 -26 -131 -45 -167 -19 -36 -79 -108 -91 -108 -6 0 -4 8
5 18 9 10 23 36 30 57 17 49 40 201 36 247 -1 18 -1 47 0 63 4 49 19 0 21 -65
1 -38 4 -49 9 -35 4 11 2 63 -5 115 -7 52 -13 106 -13 120 -1 20 -3 22 -11 10
-8 -13 -10 -13 -10 1 0 22 -35 51 -56 47 -9 -1 -22 -12 -28 -23 -6 -11 -13
-22 -16 -25 -3 -3 -5 -36 -6 -75 -1 -38 -2 -92 -4 -120 l-2 -50 -14 50 c-16
60 -18 95 -4 95 6 0 10 17 10 38 0 28 -3 33 -11 22 -13 -21 0 54 18 97 7 18
13 36 13 40 -1 16 -40 -40 -40 -56 0 -10 -3 -21 -7 -25 -4 -4 -6 -46 -6 -94 1
-63 0 -78 -6 -54 -12 46 -18 49 -44 24 -40 -38 -39 -24 3 29 22 28 40 56 40
62 0 7 -9 1 -20 -13 -27 -35 -25 -12 3 30 22 32 40 80 31 80 -2 0 -15 -23 -30
-51 -14 -28 -28 -49 -30 -46 -3 3 0 15 6 27 18 34 -1 46 -47 29 -25 -10 -44
-26 -54 -47 -15 -29 -17 -30 -22 -11 -8 31 -49 22 -58 -13 -9 -35 -2 -37 11
-3 18 48 37 31 50 -48 7 -42 5 -67 -13 -129 -12 -43 -25 -78 -28 -78 -11 0
-40 143 -38 190 3 104 20 219 43 283 14 37 21 67 16 67 -5 0 -17 -26 -27 -57
-10 -32 -25 -65 -34 -74 -9 -9 -24 -42 -34 -73 -10 -31 -20 -56 -23 -56 -5 0
5 70 14 94 3 9 1 16 -5 16 -6 0 -11 -8 -11 -18 0 -10 -4 -22 -10 -28 -11 -11
2 -69 15 -69 4 0 18 26 29 57 12 31 25 60 30 65 5 5 6 2 1 -5 -4 -8 -10 -66
-14 -130 l-7 -117 -13 59 -13 58 -45 -78 c-53 -95 -94 -156 -100 -150 -3 3 -1
11 3 18 13 20 16 37 19 101 1 32 7 63 13 69 8 8 9 4 5 -12 -4 -15 -2 -21 4
-17 6 4 13 18 15 32 3 13 1 22 -4 19 -5 -3 -6 7 -3 23 4 19 -2 12 -19 -22 -13
-27 -25 -44 -25 -38 -1 19 -49 27 -66 13 -37 -31 -26 6 43 143 2 4 -1 7 -6 7
-16 0 -100 -170 -106 -215 l-6 -40 16 45 c19 50 22 56 29 49 2 -3 -4 -28 -14
-55 -16 -42 -18 -62 -11 -115 13 -99 19 -108 41 -58 11 23 17 44 15 46 -2 3 2
21 11 41 10 24 11 33 3 25 -7 -6 -20 -35 -30 -63 -15 -44 -18 -48 -24 -28 -18
70 6 186 44 205 29 14 50 7 50 -19 0 -10 5 -16 10 -13 18 11 10 -18 -20 -72
-32 -56 -36 -68 -21 -58 5 3 12 1 16 -5 3 -5 -1 -10 -9 -10 -18 0 -20 -17 -6
-40 8 -12 10 -12 16 3 10 27 20 20 32 -22 17 -56 16 -60 -27 -67 -48 -8 -56
-23 -36 -71 14 -34 13 -53 -5 -53 -4 0 -6 10 -3 23 4 18 -1 16 -31 -15 -25
-27 -36 -47 -36 -68 0 -21 -4 -29 -11 -24 -12 7 -7 103 7 154 6 21 0 18 -30
-17 -21 -24 -43 -43 -49 -43 -8 0 -7 4 1 12 15 15 16 32 2 23 -5 -3 -10 -1
-10 5 0 7 7 10 15 6 16 -6 45 39 45 70 0 9 6 14 13 11 9 -3 12 17 12 79 0 59
-4 84 -12 84 -8 0 -10 -14 -6 -45 3 -25 2 -62 -2 -81 -6 -33 -9 -36 -36 -32
-39 6 -47 -8 -9 -15 21 -5 28 -11 24 -22 -5 -11 -21 -15 -65 -15 -33 0 -59 -4
-59 -10 0 -5 -5 -10 -11 -10 -5 0 -8 4 -5 9 3 5 -60 6 -143 3 -158 -5 -285 4
-276 19 4 5 1 9 -4 9 -6 0 -11 -4 -11 -10 0 -13 -76 -13 -100 0 -11 6 -39 6
-76 0 l-59 -9 57 4 c32 2 58 -1 58 -6 0 -5 -4 -9 -10 -9 -5 0 -10 -7 -10 -15
0 -8 -4 -15 -10 -15 -6 0 -10 -35 -10 -85 0 -50 -4 -85 -10 -85 -5 0 -10 7
-10 15 0 8 -4 15 -10 15 -5 0 -9 15 -9 33 2 30 2 30 6 5 2 -16 9 -28 14 -28 5
0 6 12 3 27 -9 35 -13 43 -25 43 -13 0 -11 -84 2 -97 7 -7 9 -25 5 -47 -8 -41
-26 -49 -26 -11 0 26 -14 33 -26 13 -4 -6 -3 -8 4 -4 6 4 12 -3 14 -16 5 -36
37 -35 44 1 14 71 28 14 24 -96 0 -5 -18 -7 -39 -5 -21 2 -42 -1 -46 -7 -4 -7
12 -11 49 -11 33 0 56 -4 56 -10 0 -7 -20 -10 -50 -9 -27 2 -53 0 -57 -4 -6
-7 52 -11 90 -8 9 1 20 -4 22 -12 5 -10 17 -11 58 -4 29 5 194 11 367 13 173
3 321 7 328 9 9 3 11 15 7 39 -4 20 -2 36 4 40 7 5 11 -11 11 -48 0 -63 16
-74 44 -31 20 30 32 215 14 215 -7 0 -8 -20 -4 -59 7 -58 7 -59 -21 -64 -15
-3 -31 -3 -35 0 -5 2 -8 43 -8 91 0 70 4 93 20 117 15 23 20 26 20 11 0 -12 5
-16 15 -12 12 4 15 -4 17 -37 l1 -42 4 38 c2 20 8 37 12 37 4 0 6 -12 5 -27
-7 -68 -11 -253 -5 -253 3 0 7 36 9 80 6 133 18 152 55 82 22 -44 22 -52 -9
-98 -15 -21 -27 -45 -29 -54 -1 -8 -12 -16 -23 -18 -12 -2 -22 -9 -22 -17 0
-7 -6 -16 -12 -18 -7 -3 11 -3 40 0 45 5 52 3 52 -12 0 -16 -6 -17 -67 -9 -65
9 -120 9 -588 1 -361 -6 -375 -6 -375 -18 0 -8 11 -9 32 -5 20 4 29 3 23 -3
-6 -5 -21 -12 -35 -14 -14 -3 46 -3 133 0 l159 6 -3 -136 c-2 -75 0 -139 3
-142 11 -11 19 67 17 168 l-2 102 64 -1 c54 -1 65 -4 68 -20 2 -10 9 -23 16
-29 7 -5 18 -47 25 -92 18 -122 34 -106 28 27 l-6 110 265 0 c220 -1 265 -3
270 -16 7 -19 23 -18 23 2 0 8 5 12 10 9 6 -3 10 -21 10 -38 1 -18 7 -58 15
-90 l13 -58 -57 7 c-48 5 -59 3 -64 -10 -4 -9 -13 -16 -21 -16 -13 0 -32 -59
-28 -85 1 -6 -18 -60 -42 -119 l-43 -109 -54 -24 c-53 -25 -189 -152 -189
-177 1 -6 12 3 25 19 36 43 31 25 -10 -35 -19 -29 -35 -56 -35 -61 0 -22 18
-3 55 59 38 64 42 67 85 73 40 4 42 6 15 10 l-30 4 42 23 c50 26 53 27 53 7 0
-8 -6 -13 -13 -11 -6 1 -9 1 -4 -1 20 -12 -16 -84 -70 -141 -13 -13 -18 -32
-8 -32 2 0 28 31 57 68 111 144 200 253 204 249 3 -2 -2 -30 -11 -62 -8 -32
-12 -61 -10 -66 3 -4 -22 -46 -55 -94 -33 -47 -60 -88 -60 -91 0 -13 20 11 63
73 63 93 85 119 92 112 3 -3 -14 -34 -37 -68 -66 -96 -81 -121 -70 -121 5 0
17 16 28 35 10 19 22 35 26 35 3 0 20 24 37 53 17 29 40 62 53 73 l22 19 -21
-35 c-60 -103 -75 -131 -70 -136 11 -11 105 176 131 261 17 55 138 238 175
264 16 12 46 28 65 36 31 13 26 6 -40 -58 -66 -64 -94 -101 -63 -81 7 4 -8
-17 -31 -47 -51 -65 -90 -147 -90 -192 0 -36 -37 -138 -69 -193 -11 -19 -16
-34 -11 -34 9 0 61 102 76 150 6 20 10 8 21 -59 7 -47 15 -87 18 -89 15 -15
13 15 -5 104 -11 54 -20 109 -20 120 0 37 46 127 95 187 25 32 45 62 43 68 -6
19 104 119 145 131 45 14 89 2 93 -25 3 -22 23 -47 37 -47 6 0 0 11 -13 25
-13 14 -21 25 -17 25 19 0 130 -76 174 -118 63 -61 81 -95 99 -186 l13 -71 -4
58 c-2 34 0 55 6 52 41 -26 -67 130 -133 190 -104 97 -140 115 -230 115 -96 0
-99 10 -23 75 30 25 53 50 50 55 -9 15 18 24 60 21 72 -4 175 -30 203 -49 15
-11 51 -32 80 -48 108 -58 113 -62 99 -67 -26 -10 -72 6 -112 38 -64 50 -64
50 -101 14 -19 -18 -34 -38 -34 -43 0 -6 13 -20 30 -31 18 -12 26 -23 20 -29
-6 -6 -27 7 -55 33 -25 23 -57 46 -71 51 -30 12 -149 11 -184 0 -16 -6 1 -7
45 -3 91 7 142 -8 201 -57 48 -39 74 -50 74 -30 0 27 20 3 48 -58 41 -90 44
-105 47 -188 2 -39 12 -116 24 -170 12 -55 24 -109 27 -121 2 -13 8 -23 13
-23 4 0 -2 46 -15 102 -27 122 -27 121 -12 112 8 -5 9 -2 5 10 -4 10 -7 25 -8
34 -1 10 -4 7 -9 -8 -6 -19 -8 -13 -9 29 -1 51 9 61 22 21 2 -8 3 -3 1 12 -3
23 1 29 21 34 14 3 32 4 40 0 8 -3 15 -2 15 3 0 5 21 14 48 21 70 18 75 20 70
26 -3 3 -31 -2 -63 -11 -31 -9 -58 -15 -59 -13 -25 38 -35 62 -41 106 -5 37
-11 52 -22 52 -11 0 -13 -5 -8 -17 17 -41 23 -88 14 -99 -10 -13 -2 -44 12
-44 5 0 7 12 4 28 l-6 27 15 -25 c21 -34 20 -37 -14 -42 -27 -4 -32 -1 -40 26
l-10 31 5 -34 c3 -19 2 -32 -1 -28 -8 7 -24 86 -30 142 -4 38 -3 38 12 17 8
-12 22 -39 30 -59 13 -36 14 -36 10 -7 -6 38 -56 123 -73 124 -16 0 -16 0 3
-45 20 -50 14 -53 -12 -5 l-21 38 27 32 c24 28 30 31 48 21 15 -8 62 -8 174 0
199 14 190 15 283 -28 132 -61 139 -75 44 -98 -46 -11 -49 -13 -21 -14 18 -1
49 6 69 14 20 8 37 14 38 13 0 -2 16 -22 33 -45 18 -22 51 -79 73 -125 23 -45
46 -86 51 -89 6 -4 7 -12 3 -19 -5 -8 -4 -11 3 -7 9 6 20 -16 88 -180 8 -20
20 -33 31 -33 17 1 17 1 1 11 -30 17 -22 39 15 41 17 0 43 2 57 2 19 1 25 6
23 21 -1 11 -5 130 -8 265 -4 135 -8 293 -9 352 -2 60 0 108 4 108 4 0 10
-105 14 -232 13 -445 17 -563 22 -568 10 -10 23 26 24 70 2 55 2 162 -1 193
-1 12 3 42 8 67 7 34 6 54 -5 80 -17 41 -10 94 17 130 12 17 23 58 30 115 13
97 26 119 72 129 16 3 29 10 29 16 0 13 -46 3 -76 -16 -31 -19 -45 0 -27 37
13 25 20 29 59 29 24 0 44 5 44 10 0 6 -21 9 -52 7 -50 -3 -53 -5 -56 -31 -3
-26 -4 -27 -17 -9 -11 14 -14 15 -15 3 0 -13 -1 -13 -10 0 -8 13 -10 12 -10
-2 0 -10 -4 -18 -10 -18 -5 0 -10 25 -10 55 0 42 3 55 15 55 11 0 15 -11 16
-37 0 -30 2 -33 8 -18 8 20 8 20 13 0 5 -16 6 -17 7 -2 1 14 12 17 64 19 l62
1 -55 7 c-56 7 -44 13 20 11 19 -1 30 2 24 6 -6 4 -14 55 -18 113 -4 58 -9
116 -10 130 -2 14 -4 53 -4 88 -1 37 -6 62 -13 62 -8 0 -9 -44 -3 -152 5 -84
9 -167 9 -185 0 -17 3 -29 8 -26 4 2 7 -1 7 -7 0 -7 -6 -10 -12 -7 -7 2 -23 0
-35 -4 -17 -6 -23 -5 -23 6 0 9 9 15 21 15 20 0 21 3 14 118 -13 232 -13 232
7 246 11 8 16 20 12 30 -9 24 1 19 20 -9 15 -23 15 -24 -1 -18 -14 6 -14 3 3
-19 18 -25 19 -25 22 -6 4 22 -28 73 -46 73 -6 0 -14 4 -19 9 -5 5 -3 6 5 2 7
-4 12 -2 12 5 0 8 4 8 13 1 8 -7 16 -5 27 6 13 14 12 15 -2 9 -11 -4 -31 7
-57 31 l-41 37 0 88 c0 100 4 103 68 56 23 -17 42 -26 42 -21 0 5 -7 12 -15
16 -16 6 -10 35 9 48 6 4 7 10 4 13 -4 4 -14 -2 -23 -12 -14 -17 -21 -18 -51
-9 -28 9 -34 16 -34 38 0 24 4 28 29 28 16 0 41 -4 55 -10 17 -6 26 -6 26 0 0
6 -4 10 -10 10 -6 0 -10 31 -10 74 0 41 5 78 10 81 6 3 10 11 10 17 0 6 -9 3
-20 -7 -16 -15 -20 -31 -20 -87 0 -71 -2 -74 -47 -62 -20 6 -23 13 -23 57 0
30 5 54 14 61 7 6 17 24 20 39 6 23 3 30 -13 34 -16 4 -21 15 -24 57 -2 28 -4
-199 -4 -504 -1 -305 -2 -559 -2 -565 -1 -5 -8 1 -17 14 -11 15 -23 21 -35 18
-18 -5 -19 3 -19 148 0 85 -3 156 -7 158 -5 3 -8 -54 -8 -126 0 -112 -2 -132
-16 -135 -14 -2 -15 11 -11 108 3 62 1 110 -4 110 -5 0 -8 -33 -6 -74 6 -108
-14 -134 -23 -30 -10 128 -15 119 -9 -20 4 -91 2 -126 -5 -122 -7 4 -11 42
-11 92 0 47 -4 83 -8 80 -5 -3 -7 -41 -4 -86 l5 -80 -67 0 c-36 0 -67 3 -67 8
-1 4 -3 44 -4 90 -3 117 -15 115 -15 -3 0 -63 -4 -95 -9 -89 -6 5 -11 59 -12
119 -1 61 -5 135 -9 165 -4 30 -7 55 -6 55 0 0 46 -2 101 -5 l100 -5 6 -30 c6
-29 7 -29 8 8 1 33 4 37 26 37 26 0 33 14 13 26 -7 4 -8 3 -4 -4 8 -13 -43
-16 -199 -12 -65 1 -95 6 -107 18 -16 14 -20 14 -36 -1 -13 -12 -22 -13 -35
-5 -13 7 -22 7 -30 -1 -6 -6 -39 -11 -73 -11 -49 0 -69 5 -98 25 -45 31 -45
24 -1 -28 39 -45 60 -106 50 -146 -4 -17 -3 -21 3 -12 14 20 20 3 23 -64 4
-73 12 -85 54 -85 19 0 35 -6 38 -12 2 -7 8 -10 12 -6 15 14 -7 28 -45 28 -39
0 -39 0 -45 48 -3 26 -8 64 -10 84 -3 20 -1 40 5 43 5 3 10 11 10 18 0 6 -6 2
-14 -8 -13 -18 -15 -17 -21 20 -4 22 -12 48 -17 58 -6 12 -5 17 6 17 10 0 16
-13 19 -37 l4 -38 1 38 c2 41 18 50 25 15 4 -22 4 -22 6 -2 1 18 9 23 47 29
52 7 66 1 40 -18 -16 -12 -16 -20 -2 -127 l15 -115 -6 116 c-4 93 -3 117 8
121 12 4 14 -26 16 -174 1 -99 -1 -177 -4 -174 -4 3 -6 30 -6 59 0 48 0 49 -4
8 -4 -42 -5 -43 -35 -37 -17 3 -34 6 -39 6 -17 0 -9 20 9 21 11 0 12 2 4 6
-15 6 -44 -16 -36 -28 3 -5 -98 -9 -234 -9 l-240 0 -5 33 c-4 24 1 38 18 57
13 14 29 39 35 55 l12 30 15 -37 c8 -21 18 -38 22 -38 8 0 30 98 37 160 3 23
-3 12 -16 -30 -11 -36 -20 -76 -20 -90 0 -20 -2 -22 -10 -10 -5 8 -10 49 -11
90 l-1 75 -18 -72 c-22 -83 -43 -128 -65 -136 -8 -4 -15 -2 -15 2 0 5 6 11 14
14 20 8 38 92 39 187 0 85 0 85 7 25 7 -52 7 -48 5 29 l-3 90 24 -40 c13 -21
24 -34 24 -28 0 6 -13 31 -29 55 -16 24 -38 74 -47 111 -10 37 -22 68 -27 68
-4 0 -5 -10 -1 -22 5 -13 8 -34 7 -48 0 -14 4 -46 9 -72 11 -51 -6 -153 -23
-142 -5 3 -6 -2 -3 -10 20 -52 51 84 35 149 -14 58 -13 69 4 25 9 -25 11 -69
8 -155 -5 -99 -10 -128 -30 -167 -13 -27 -27 -65 -32 -85 l-8 -38 -12 59 c-13
59 -9 124 7 135 5 3 15 17 22 31 12 22 12 24 -2 12 -13 -10 -15 -8 -11 15 3
16 9 38 15 50 12 24 -8 157 -22 148 -12 -7 -21 95 -24 270 -2 83 -7 161 -11
175 -4 14 -5 22 -1 19 4 -4 18 -60 32 -125 14 -66 29 -123 35 -128 5 -6 9 -20
9 -32 0 -13 4 -26 10 -29 6 -4 8 10 4 37 -5 47 6 74 27 66 8 -3 43 -62 78
-132 34 -69 67 -126 72 -126 5 0 -4 24 -21 53 -36 64 -38 78 -7 50 12 -12 31
-23 42 -25 11 -2 35 -24 55 -50 19 -26 36 -45 38 -44 2 2 -6 23 -18 46 -12 23
-24 39 -27 36 -4 -3 -14 1 -24 10 -10 9 -32 23 -51 32 -33 17 -87 99 -103 158
-5 19 -10 23 -12 13 -3 -11 -12 -15 -27 -12 -19 4 -26 -1 -33 -23 -8 -24 -11
-17 -27 61 -27 140 -63 237 -107 290 -22 27 -38 53 -36 59 2 6 20 12 40 14 70
6 114 -73 65 -118 -12 -11 -17 -20 -11 -20 36 0 59 80 31 108 -17 17 4 15 28
-3 21 -16 38 -20 30 -6 -10 16 -96 51 -126 51 -17 0 -39 9 -50 20 -11 11 -30
20 -42 19 -18 -1 -16 -3 10 -10 17 -5 32 -14 32 -19 0 -13 -51 -51 -60 -45 -5
3 -20 1 -35 -5 -19 -7 -31 -7 -41 0 -9 8 -18 8 -33 1 -29 -16 -81 -14 -81 3 0
8 -7 16 -15 20 -35 13 -11 26 50 26 49 0 68 -4 82 -18 16 -17 22 -18 63 -6
l45 14 -47 -5 c-52 -5 -74 16 -37 36 11 6 18 13 16 16 -3 2 -14 0 -24 -6 -15
-7 -26 -5 -49 10 -16 10 -45 24 -64 29 -20 5 -44 16 -55 25 -17 13 -13 13 35
-1 30 -9 70 -24 88 -35 17 -10 32 -14 32 -9 0 6 -4 10 -10 10 -5 0 -16 10 -24
23 -20 32 -29 67 -17 67 5 0 12 -8 15 -18 3 -9 19 -31 34 -48 22 -25 39 -32
82 -37 70 -9 180 -46 267 -91 104 -54 150 -67 232 -67 104 0 79 -18 -40 -29
-52 -5 -105 -9 -119 -9 l-25 1 25 9 c22 7 20 8 -12 6 -20 -2 -34 1 -32 5 3 4
-2 8 -11 8 -9 0 -35 10 -58 21 -34 18 -39 19 -28 5 22 -26 99 -62 203 -96 70
-23 111 -30 173 -30 120 -1 70 -22 -64 -27 -85 -3 -110 -1 -126 12 -19 14 -19
15 8 5 16 -5 36 -10 45 -9 9 0 -10 10 -44 23 -33 12 -75 32 -92 45 -18 12 -32
18 -32 12 0 -5 16 -19 35 -31 19 -12 54 -47 78 -78 41 -55 42 -59 37 -112 -5
-42 -1 -68 18 -120 13 -36 24 -71 26 -77 1 -7 22 -36 46 -65 74 -86 174 -137
245 -124 l32 6 2 68 c2 81 -14 108 -75 129 l-39 13 45 -5 c31 -2 50 -11 63
-26 l18 -22 38 21 c52 30 67 28 42 -4 -16 -21 -21 -41 -21 -90 0 -88 11 -94
158 -94 73 0 111 -4 107 -10 -3 -5 1 -10 10 -10 9 0 13 5 10 10 -3 6 -1 10 6
10 8 0 8 4 -1 15 -10 13 -9 15 9 15 15 0 21 6 20 23 -1 15 -3 17 -6 6 -2 -10
-13 -19 -25 -22 -12 -4 -17 -10 -13 -18 5 -7 3 -10 -6 -7 -8 3 -13 25 -15 68
-1 53 -5 67 -24 82 -26 21 -9 23 34 5 19 -8 34 -26 43 -47 12 -33 13 -33 7 -5
-8 44 -23 55 -111 82 l-78 24 55 -6 c30 -4 74 -17 98 -30 23 -13 42 -20 42
-15 0 4 -22 19 -49 33 -46 23 -57 24 -197 21 -82 -2 -171 -1 -198 2 l-50 6 29
12 c35 15 178 12 219 -4 16 -6 31 -8 34 -6 8 9 -45 25 -88 28 -24 2 -40 8 -40
16 0 17 -10 15 -26 -5 -11 -14 -16 -15 -22 -5 -7 10 -19 9 -60 -4 -29 -10 -53
-15 -55 -13 -22 32 -57 90 -57 95 0 9 441 -1 463 -11 27 -11 16 -38 -26 -60
-49 -27 -47 -38 4 -20 22 8 43 14 47 14 20 -3 30 3 35 22 3 13 1 19 -6 16 -7
-2 -13 -9 -13 -15 -3 -25 -5 -27 -13 -13 -11 18 -2 51 14 51 32 0 45 -12 34
-31 -8 -15 -6 -19 6 -19 9 0 13 5 10 10 -3 6 -1 10 4 10 6 0 12 -18 12 -40 1
-22 2 -56 3 -75 2 -62 16 -37 15 28 -1 53 -15 132 -18 102 -1 -5 -5 -4 -10 4
-5 8 -26 15 -48 17 -51 4 -53 5 -18 15 l30 8 -32 -3 c-18 -1 -35 2 -37 8 -3 7
-5 6 -5 -1 -1 -8 -14 -13 -33 -12 l-33 1 29 7 c16 3 -73 7 -198 7 -168 1 -231
5 -239 14 -9 10 -9 11 1 6 6 -4 12 -5 12 -1 0 3 -12 11 -27 18 -25 11 -18 12
67 17 l95 6 -101 2 c-85 2 -104 5 -118 21 -16 18 -16 19 21 23 21 3 90 3 153
1 156 -5 225 -6 288 -4 47 1 54 4 63 27 14 39 3 59 -39 71 l-37 11 37 -3 c21
-1 36 1 33 4 -2 4 -66 8 -141 9 -76 2 -136 0 -133 -3 3 -3 38 -6 78 -6 120 -2
68 -14 -71 -16 -112 -2 -129 0 -124 12 4 12 0 14 -18 9 -17 -4 -27 0 -35 13
-6 10 -11 14 -11 9 0 -5 7 -17 16 -27 15 -17 13 -18 -32 -13 -93 8 -127 15
-146 28 -17 12 -12 14 45 18 48 3 75 10 103 29 29 20 49 25 79 23 34 -3 281
-15 355 -17 14 -1 60 3 103 7 l77 8 0 -53 c0 -52 -1 -55 -38 -74 -42 -23 -49
-48 -13 -53 23 -4 41 11 41 33 -1 6 -5 2 -11 -7 -10 -18 -49 -25 -49 -10 0 7
52 42 64 42 3 0 7 -48 9 -107 2 -79 3 -62 5 65 l2 172 -37 -1 c-21 0 -63 -4
-94 -8 -31 -4 -96 -3 -145 1 -49 4 -109 7 -134 7 -77 0 -82 0 -192 5 -59 3
-111 7 -115 9 -5 2 -24 3 -43 1 -26 -2 -62 10 -145 51 -127 62 -229 95 -290
95 -24 0 -47 4 -50 10 -4 6 58 11 167 13 l173 3 -182 2 -182 2 -20 28 -20 29
232 -5 c128 -2 230 -2 227 0 -3 3 -131 7 -285 10 -154 3 -265 3 -247 1z m52
-119 c22 -15 40 -28 40 -30 0 -3 -62 14 -64 18 -1 2 -8 11 -15 21 -19 24 -7
21 39 -9z m-502 -105 c-28 -19 -48 -39 -48 -50 0 -10 -5 -21 -11 -24 -6 -4 -8
-13 -5 -21 3 -8 1 -14 -5 -14 -6 0 -23 -9 -38 -20 -31 -21 -140 -64 -147 -58
-2 3 14 13 36 23 22 10 40 22 40 27 0 5 -19 -1 -42 -15 -24 -13 -42 -29 -41
-35 2 -7 -5 -12 -15 -12 -10 0 -23 -5 -30 -12 -8 -8 -12 -8 -12 -1 0 6 27 38
59 72 45 47 78 70 138 97 43 19 94 44 113 54 55 31 60 23 8 -11z m715 -69 c-6
-6 -33 30 -33 44 0 6 9 0 20 -14 10 -14 16 -27 13 -30z m951 -88 c3 -5 2 -18
-1 -30 -5 -21 -11 -22 -119 -22 -113 0 -114 0 -114 23 0 13 3 27 7 30 9 10
221 9 227 -1z m276 -22 c0 -16 -4 -30 -10 -30 -5 0 -10 14 -10 30 0 17 5 30
10 30 6 0 10 -13 10 -30z m-530 -2 c0 -23 -1 -23 -165 -25 -104 -1 -163 1
-160 7 4 6 36 10 73 11 37 0 83 6 102 13 19 8 61 14 93 15 53 1 57 -1 57 -21z
m-1599 -18 c-23 -20 -61 -27 -61 -12 0 9 47 29 70 31 10 0 7 -6 -9 -19z m1307
-42 c87 -64 175 -189 187 -263 6 -39 5 -38 -23 20 -20 42 -48 77 -92 117 -36
32 -66 56 -68 54 -1 -2 6 -19 17 -37 22 -38 55 -153 48 -172 -2 -7 -14 18 -26
54 -12 36 -33 81 -46 99 -14 19 -25 41 -25 50 0 8 -8 26 -17 39 -9 14 -11 21
-5 17 23 -14 12 11 -18 39 -64 61 -26 52 68 -17z m-718 -67 c-5 -11 -7 -27 -3
-37 4 -12 3 -15 -5 -10 -8 5 -10 2 -6 -9 4 -10 2 -15 -7 -13 -9 2 -13 -5 -12
-16 1 -11 -7 -37 -18 -59 -11 -21 -23 -61 -26 -88 -3 -27 -10 -52 -14 -55 -12
-7 -11 70 1 121 6 25 5 42 -1 46 -17 10 2 91 27 116 13 13 35 23 49 23 22 0
24 -3 15 -19z m204 -36 c20 -61 17 -80 -21 -192 -14 -40 -23 -78 -20 -85 2 -7
12 13 21 46 9 32 18 57 20 55 2 -2 1 -34 -2 -71 -3 -43 -8 -65 -15 -61 -6 3
-7 1 -3 -5 11 -19 -12 -125 -35 -155 -11 -15 -17 -32 -14 -37 3 -5 0 -12 -6
-16 -8 -5 -9 -3 -4 6 4 7 4 11 -1 8 -5 -2 -24 -11 -41 -18 -18 -8 -33 -18 -33
-22 0 -14 65 4 103 28 20 14 50 38 66 54 31 33 51 39 51 15 0 -8 4 -15 9 -15
5 0 11 7 15 15 3 8 12 15 21 15 10 0 15 10 15 29 0 41 -25 47 -52 11 -12 -17
-25 -30 -30 -30 -4 0 6 19 23 43 35 48 48 52 66 17 22 -44 16 -96 -13 -119
-15 -12 -36 -21 -46 -21 -11 0 -29 -12 -40 -26 -11 -14 -26 -23 -33 -20 -22 8
-25 -5 -9 -36 8 -16 12 -33 9 -39 -10 -16 -145 -80 -155 -74 -6 4 -10 2 -10
-4 0 -13 -75 -34 -98 -28 -13 4 -12 6 7 12 13 5 43 18 66 30 35 17 42 18 38 6
-3 -9 4 -6 16 8 12 13 21 28 21 35 0 7 -3 7 -8 1 -24 -33 -264 -110 -319 -103
-20 2 -29 14 -44 52 -10 26 -25 56 -33 65 -9 10 -16 26 -16 35 0 10 -9 20 -20
23 -15 4 -20 14 -20 41 0 19 -7 43 -15 52 -8 8 -21 32 -29 52 l-15 36 36 7
c22 4 50 20 71 41 29 29 33 39 28 67 -13 63 -7 103 25 172 l33 70 8 -42 c4
-23 12 -51 17 -62 6 -11 11 -23 10 -28 0 -4 -11 15 -24 42 -13 28 -24 45 -24
39 -1 -16 38 -102 49 -109 5 -3 19 -37 30 -74 26 -88 49 -112 43 -44 -3 27 0
64 6 83 8 27 10 30 10 10 -2 -52 3 -105 8 -92 4 10 9 9 20 -5 13 -17 14 -16 8
10 -5 27 8 57 25 57 3 0 5 -24 2 -53 -3 -41 0 -57 13 -71 27 -26 66 -16 93 24
20 30 56 60 39 33 -9 -14 20 -108 37 -122 11 -9 14 0 20 51 4 35 6 70 5 78 0
8 -1 39 -2 68 0 28 -4 52 -8 52 -9 0 -16 -76 -15 -157 1 -72 -11 -74 -20 -3
-5 41 -14 56 -45 85 -44 39 -102 67 -124 59 -8 -4 -15 -1 -15 5 0 23 32 23 81
-1 41 -21 47 -22 33 -7 -10 11 -34 24 -55 31 -31 9 -38 15 -35 32 2 16 9 20
26 18 42 -7 70 -21 76 -39 4 -10 12 -32 20 -50 8 -17 14 -36 14 -41 0 -6 5
-14 11 -18 8 -4 10 12 7 54 -1 33 0 58 3 56 7 -4 13 80 11 139 -2 50 13 77 42
77 19 0 26 -9 40 -55z m499 -26 c4 -3 28 -55 53 -115 25 -60 55 -119 67 -131
11 -13 16 -23 10 -23 -6 0 -35 26 -64 58 -61 66 -100 154 -106 237 l-3 50 17
-35 c10 -19 21 -38 26 -41z m135 -60 c12 -17 10 -19 -15 -19 -24 0 -30 6 -44
45 l-16 45 31 -27 c17 -14 37 -34 44 -44z m-836 39 c-7 -7 -12 -8 -12 -2 0 6
3 14 7 17 3 4 9 5 12 2 2 -3 -1 -11 -7 -17z m38 -57 c0 -14 -5 -18 -20 -14
-23 6 -26 19 -7 26 22 9 27 7 27 -12z m803 -18 c-7 -2 -21 -2 -30 0 -10 3 -4
5 12 5 17 0 24 -2 18 -5z m27 -23 c0 -5 -14 -7 -32 -3 -46 8 -48 13 -5 13 21
0 37 -4 37 -10z m200 -10 c-27 -14 -38 -16 -49 -7 -12 10 -7 13 25 18 61 10
61 9 24 -11z m-1444 -25 c-6 -19 -14 -35 -18 -35 -11 0 -10 7 7 40 21 40 24
38 11 -5z m1614 24 c18 -6 12 -7 -25 -4 -27 3 -56 1 -63 -3 -7 -5 11 -9 44
-10 70 -2 121 -18 128 -40 3 -9 6 -37 8 -62 l3 -44 -58 -4 c-54 -3 -58 -1 -67
23 -6 15 -7 38 -4 52 4 16 2 28 -7 34 -23 15 -28 11 -40 -33 -7 -24 -20 -50
-28 -59 -15 -14 -16 -11 -18 34 -1 27 3 59 9 71 12 21 14 27 17 46 1 12 66 12
101 -1z m-384 -9 c18 0 27 -8 34 -27 6 -16 16 -38 22 -50 15 -30 12 -32 -42
-24 -49 7 -70 32 -70 85 0 22 4 27 16 22 9 -3 27 -6 40 -6z m84 0 c0 -5 7 -10
16 -10 15 0 44 -56 44 -86 0 -12 -7 -15 -30 -12 -16 3 -30 1 -30 -4 0 -4 11
-8 25 -8 20 0 25 -5 25 -25 0 -22 -4 -25 -32 -25 -38 0 -100 29 -106 49 -3 10
4 12 36 6 38 -6 42 -5 47 17 3 13 1 36 -4 52 -14 34 -14 56 -1 56 6 0 10 -4
10 -10z m357 -6 c-3 -3 -12 -4 -19 -1 -8 3 -5 6 6 6 11 1 17 -2 13 -5z m-1611
-24 c0 -12 -4 -16 -9 -11 -5 5 -6 14 -3 20 10 15 12 14 12 -9z m1508 -59 c-3
-16 -1 -38 5 -50 11 -20 9 -21 -31 -21 -32 1 -39 3 -27 10 9 5 20 27 24 47 8
45 13 55 25 48 5 -3 7 -19 4 -34z m-1530 -8 c-4 -34 -3 -35 6 -14 8 18 14 21
22 13 8 -8 5 -20 -12 -44 -12 -18 -19 -25 -16 -15 3 9 1 17 -4 17 -6 0 -10 18
-10 40 0 22 4 40 9 40 6 0 8 -17 5 -37z m316 27 c0 -5 -2 -10 -4 -10 -3 0 -8
5 -11 10 -3 6 -1 10 4 10 6 0 11 -4 11 -10z m52 -37 c31 -28 18 -81 -24 -96
-33 -12 -55 66 -27 99 15 18 28 18 51 -3z m1508 -24 c0 -5 4 -8 9 -5 5 3 15
-2 22 -11 8 -9 9 -14 3 -10 -20 12 -26 -25 -8 -44 16 -18 16 -19 -4 -19 -12 0
-26 9 -32 19 -15 29 -12 44 7 37 16 -6 16 -6 0 12 -19 21 -22 32 -7 32 6 0 10
-5 10 -11z m-1214 -26 c-10 -10 -19 5 -10 18 6 11 8 11 12 0 2 -7 1 -15 -2
-18z m972 -20 c-26 -2 -71 -2 -100 0 -29 2 -8 3 47 3 55 0 79 -1 53 -3z m-978
-63 c0 -13 -7 -20 -20 -20 -22 0 -28 25 -7 33 22 10 27 7 27 -13z m760 12 c0
-11 -37 -32 -44 -25 -3 3 2 12 12 19 19 15 32 18 32 6z m470 -12 c0 -5 -4 -10
-10 -10 -5 0 -10 5 -10 10 0 6 5 10 10 10 6 0 10 -4 10 -10z m-2761 -24 c1 19
7 20 69 20 39 1 49 -1 25 -3 l-43 -4 0 -180 c0 -118 -4 -179 -10 -179 -7 0
-11 48 -10 138 1 197 1 226 -6 220 -8 -9 -8 -318 0 -355 7 -28 10 -31 22 -19
16 17 112 21 333 17 112 -3 145 0 152 10 6 11 11 11 21 1 13 -13 138 -17 138
-4 0 5 -24 6 -54 4 -31 -2 -63 1 -76 8 -16 9 -25 9 -33 1 -6 -6 -36 -11 -66
-11 -42 1 -52 3 -39 10 12 7 15 19 12 43 -11 81 -12 94 -13 117 -1 20 -3 22
-11 10 -8 -13 -11 -12 -24 5 -14 19 -15 17 -16 -27 0 -27 4 -48 10 -48 5 0 7
13 3 30 -4 24 -3 29 10 25 27 -11 38 -139 12 -149 -12 -4 -15 3 -15 34 0 21
-4 41 -10 45 -5 3 -7 -14 -3 -45 6 -54 6 -54 -47 -44 -19 4 -35 15 -40 28 -9
21 -9 21 -9 -1 -1 -17 -7 -23 -25 -23 -13 0 -44 -3 -70 -6 l-46 -7 0 33 c0 37
36 92 42 64 2 -12 15 -17 51 -18 26 0 47 2 47 7 0 4 -20 7 -44 7 -43 0 -45 1
-48 32 -4 42 -28 50 -28 10 0 -17 -7 -37 -15 -46 -8 -8 -15 -31 -15 -50 0 -34
-2 -36 -35 -36 -24 0 -35 5 -35 15 0 8 6 15 14 15 15 0 30 42 27 75 -2 20 -1
20 14 1 14 -19 15 -18 15 12 0 18 -3 32 -6 32 -14 0 -34 -31 -34 -53 0 -32 -9
-57 -21 -57 -5 0 -9 32 -9 70 0 56 3 70 15 70 8 0 15 -6 15 -12 0 -9 3 -9 9 1
7 10 21 12 55 8 43 -6 46 -5 52 19 4 17 11 23 22 19 8 -3 20 -1 26 4 6 5 16
11 21 13 6 1 9 21 9 43 l-2 40 12 -39 c22 -71 76 -77 76 -9 l1 38 14 -40 c8
-22 15 -40 15 -40 3 -7 100 -2 100 5 0 5 8 10 17 10 13 0 14 3 5 12 -7 7 -12
23 -12 36 0 13 -4 20 -10 17 -5 -3 -10 -22 -10 -41 0 -34 0 -34 -42 -30 -42 4
-43 4 -57 55 -8 28 -18 51 -22 51 -5 0 -9 -25 -9 -55 0 -48 -3 -55 -20 -55
-14 0 -22 11 -29 38 -6 20 -11 45 -11 55 0 9 -7 17 -16 17 -14 0 -16 -8 -11
-48 5 -42 3 -48 -17 -58 -22 -10 -23 -8 -32 52 -8 55 -7 61 6 54 9 -5 22 -5
28 -1 7 4 38 6 70 5 31 -1 87 -3 125 -3 62 -1 67 -3 68 -23 l2 -23 4 23 c4 17
11 22 37 22 37 0 66 -23 45 -35 -8 -6 -7 -11 6 -17 11 -7 21 -6 28 1 22 22 26
10 13 -33 -9 -29 -10 -48 -4 -54 13 -13 2 -49 -17 -56 -12 -4 -15 7 -15 62 0
60 -2 68 -20 69 -11 1 -22 -2 -25 -8 -4 -5 3 -9 14 -9 19 0 21 -6 21 -57 0
-77 10 -90 39 -59 17 18 21 31 17 53 -3 15 -2 42 3 58 l9 30 1 -38 c1 -21 8
-52 17 -68 11 -23 15 -53 12 -120 l-3 -89 -275 -1 c-314 -2 -362 -4 -407 -14
-45 -10 -60 9 -75 95 -10 55 -10 75 0 90 7 11 11 34 11 52 l-2 33 -8 -35 c-6
-29 -7 -26 -3 15 11 109 17 144 25 139 5 -3 9 1 10 8 1 7 5 2 9 -12 7 -22 8
-22 9 -4z m609 17 c-10 -2 -26 -2 -35 0 -10 3 -2 5 17 5 19 0 27 -2 18 -5z
m1698 -145 c0 -172 10 -260 26 -237 8 12 9 12 6 0 -2 -8 -15 -15 -29 -17 -13
-1 -34 -5 -46 -9 -15 -5 -23 -3 -23 4 0 11 12 15 40 12 13 -2 13 -1 0 8 -12 8
-15 45 -18 181 -4 153 -2 173 13 190 10 11 21 20 24 20 4 0 6 -69 7 -152z
m-2106 123 c13 -25 13 -111 0 -111 -6 0 -10 28 -10 63 0 44 -3 58 -10 47 -5
-8 -10 -34 -10 -57 0 -42 -1 -43 -35 -43 l-35 0 0 54 0 55 38 4 c20 2 40 4 44
5 4 1 12 -7 18 -17z m-114 -7 c-3 -9 -6 -33 -6 -55 0 -21 -4 -39 -10 -39 -5 0
-10 25 -10 55 0 44 3 55 16 55 11 0 14 -5 10 -16z m2254 -19 c2 22 7 -36 11
-129 5 -93 10 -170 11 -172 4 -3 216 -5 247 -2 15 2 25 -3 26 -12 2 -13 -14
-15 -99 -14 -55 1 -119 -2 -141 -7 -46 -9 -59 -4 -24 10 l24 10 -25 0 c-42 1
-48 25 -48 197 0 99 3 144 8 119 l7 -40 3 40z m411 -47 c0 -46 4 -120 7 -165
6 -64 4 -83 -5 -83 -9 0 -13 17 -13 53 0 28 -3 103 -7 165 -4 82 -3 112 5 112
8 0 12 -27 13 -82z m-2582 -45 c13 1 26 -4 28 -10 4 -10 -14 -13 -66 -13 -55
0 -71 3 -71 14 0 18 27 25 60 15 14 -4 36 -7 49 -6z m1268 -33 c1 -11 -2 -20
-6 -20 -5 0 -11 9 -14 20 -3 12 0 20 7 20 6 0 12 -9 13 -20z m-7 -69 c0 -15
-15 -25 -55 -40 -31 -12 -74 -30 -95 -41 -22 -11 -40 -16 -40 -11 0 6 38 28
84 49 46 22 86 44 90 51 10 16 16 14 16 -8z m-510 -52 c0 -11 10 -30 23 -43
l23 -23 -23 -29 c-13 -16 -26 -44 -29 -61 -3 -18 -10 -30 -15 -27 -12 7 -11
121 1 145 15 27 2 24 -22 -6 -11 -14 -24 -25 -29 -25 -6 0 3 17 20 37 17 21
31 44 31 51 0 7 5 10 10 7 6 -3 10 -15 10 -26z m-148 -31 c5 -28 -1 -58 -11
-58 -4 0 -8 18 -9 40 -2 42 13 55 20 18z m338 -12 c-14 -8 -27 -10 -30 -5 -3
5 -14 -1 -25 -13 -12 -15 -20 -18 -23 -10 -2 7 -8 12 -13 12 -6 0 -8 -4 -5 -9
8 -13 -21 -34 -35 -25 -7 4 -9 3 -6 -3 4 -6 -4 -18 -18 -27 -36 -24 -31 -12
16 35 27 27 46 38 58 34 10 -3 23 0 29 8 6 7 26 14 44 15 l33 2 -25 -14z m90
-11 c-30 -17 -40 -18 -40 -6 0 10 22 18 50 19 8 1 4 -5 -10 -13z m1030 -24 c0
-26 -19 -31 -103 -30 l-72 2 65 7 c36 4 72 5 80 2 9 -3 11 -1 7 4 -10 10 -7
10 -319 12 -144 1 -228 6 -228 12 0 6 102 10 285 10 273 0 285 -1 285 -19z
m-1360 -11 c0 -5 -3 -10 -7 -11 -5 0 -19 -3 -33 -5 -24 -4 -24 -4 -5 10 23 18
45 20 45 6z m-383 -62 c26 16 393 0 393 -18 0 -7 -548 -6 -555 1 -2 2 21 4 51
5 30 0 59 5 66 12 7 7 16 8 23 2 6 -5 16 -6 22 -2z m851 -12 c-4 -21 -1 -23
33 -22 21 0 44 -6 51 -13 11 -11 9 -13 -12 -7 -14 3 -48 6 -77 6 -42 0 -51 3
-47 15 4 8 10 13 15 10 4 -3 13 4 19 15 14 27 23 25 18 -4z m-1032 1 c4 -4
-85 -6 -197 -5 -117 1 -176 4 -139 7 93 8 327 7 336 -2z m28 -23 c12 -5 16
-19 15 -58 -1 -50 -1 -51 -9 -13 -4 21 -12 43 -19 50 -21 21 -15 32 13 21z
m1558 -22 l28 -16 -96 -27 c-52 -14 -100 -31 -106 -37 -7 -7 -23 -2 -51 14
-23 13 -46 24 -52 24 -5 0 13 -13 40 -28 47 -27 52 -28 79 -14 38 19 155 52
182 52 31 0 52 -30 58 -80 l6 -45 -10 39 c-6 22 -15 45 -21 53 -13 15 -80 18
-107 4 -9 -4 -42 -19 -72 -33 l-55 -24 -67 36 -67 36 52 24 c63 29 161 50 202
43 17 -3 42 -12 57 -21z m468 -72 c0 -101 -20 -291 -31 -285 -4 3 -10 62 -13
132 -3 71 -8 153 -11 184 l-4 56 29 -1 30 -1 0 -85z m90 -88 c0 -99 2 -235 5
-303 l6 -124 -24 46 c-13 25 -38 71 -56 102 l-33 57 11 88 c6 48 11 135 11
193 0 58 3 109 7 112 3 4 21 7 40 7 l33 0 0 -178z m30 -52 c0 -147 4 -230 10
-230 6 0 10 -16 10 -35 0 -19 -4 -35 -10 -35 -5 0 -10 -19 -9 -42 1 -37 2 -39
9 -18 6 18 8 9 6 -32 0 -32 -4 -58 -8 -58 -13 0 -17 64 -23 373 -5 218 -4 307
4 307 8 0 11 -71 11 -230z m50 -142 c0 -204 2 -369 5 -366 2 2 6 167 7 366 l2
362 32 0 31 0 7 -252 c4 -139 11 -303 14 -364 5 -71 3 -111 -3 -111 -5 -1 -31
-4 -56 -8 -40 -6 -48 -5 -56 11 -6 12 -7 103 -1 239 8 205 6 314 -9 443 -4 44
-3 52 11 52 14 0 16 -36 16 -372z m158 347 c-13 -12 -25 -18 -26 -13 -6 13 15
35 33 35 12 0 11 -5 -7 -22z m-1440 -61 c-38 -37 -68 -75 -68 -85 0 -11 -10
-23 -22 -28 -32 -13 -140 -125 -136 -141 2 -8 -3 -14 -10 -15 -7 0 -24 -20
-38 -45 -22 -38 -22 -41 -4 -20 25 30 12 -3 -15 -35 -9 -11 -13 -13 -9 -5 4 8
3 12 -1 7 -5 -4 -10 -15 -11 -25 -10 -59 -13 -71 -22 -89 -12 -22 -42 -49 -42
-38 0 4 9 19 20 35 11 15 17 30 14 33 -3 3 1 30 10 60 9 30 16 66 16 79 0 25
107 216 144 256 42 47 166 110 236 121 3 0 -25 -29 -62 -65z m-259 -160 c-36
-64 -49 -72 -18 -12 19 36 20 46 9 81 -6 21 -9 41 -7 44 3 2 8 -10 12 -27 4
-17 9 -29 12 -27 7 8 -17 88 -25 83 -4 -2 -8 15 -8 38 -1 37 1 33 27 -42 l28
-84 -30 -54z m1736 180 c5 -27 2 -41 -10 -54 -10 -11 -16 -32 -14 -52 2 -28
-24 -108 -35 -108 -5 0 -1 61 10 155 10 94 36 126 49 59z m-779 -39 c9 -13 14
-29 12 -34 -4 -14 -68 28 -68 45 0 23 38 16 56 -11z m-70 4 c4 -8 -1 -9 -16
-4 -15 5 -20 4 -16 -4 4 -6 12 -11 18 -11 6 0 32 -12 57 -27 l46 -28 -85 -6
c-66 -5 -92 -3 -117 9 -18 9 -33 19 -33 23 0 7 108 57 127 58 6 1 15 -4 19
-10z m625 -265 c-7 -79 -8 -69 -8 96 0 171 0 178 8 89 5 -53 5 -136 0 -185z
m-890 215 c24 -17 27 -24 18 -35 -6 -8 -8 -14 -4 -14 4 0 2 -6 -4 -14 -15 -17
-28 -16 -63 8 -29 19 -29 39 0 34 12 -2 16 3 15 20 -3 27 1 27 38 1z m-721
-48 c0 -9 -44 -116 -60 -143 -15 -27 -80 -196 -80 -209 0 -14 -61 -112 -66
-107 -4 4 90 253 142 375 21 51 45 93 52 93 6 0 12 -4 12 -9z m82 -21 c-13
-56 -86 -187 -141 -252 -35 -43 -66 -78 -67 -78 -6 0 25 77 80 201 31 69 56
131 56 138 0 7 13 10 38 7 23 -2 36 -9 34 -16z m432 -1 c20 -12 36 -23 36 -25
0 -5 -44 18 -70 35 -27 19 -2 11 34 -10z m-576 -30 c-6 -16 -12 -29 -13 -27
-6 6 8 58 16 58 4 0 3 -14 -3 -31z m1851 -209 c-1 -66 -6 -56 -12 23 -2 32 0
52 4 45 5 -7 8 -38 8 -68z m-1778 -3 c-7 -19 -14 -51 -17 -73 -4 -36 -37 -85
-49 -73 -11 12 27 155 48 177 26 28 33 15 18 -31z m-196 -90 c-3 -7 -26 -23
-51 -37 -26 -13 -67 -40 -91 -58 -43 -33 -44 -33 -28 -8 10 15 41 41 69 59 98
62 109 67 101 44z m1972 -64 c-3 -10 -5 -4 -5 12 0 17 2 24 5 18 2 -7 2 -21 0
-30z"/>
<path d="M1280 1322 c0 -20 48 -38 62 -24 9 9 6 12 -13 12 -14 0 -30 5 -37 12
-9 9 -12 9 -12 0z"/>
<path d="M1200 1259 c0 -5 5 -7 10 -4 6 3 10 8 10 11 0 2 -4 4 -10 4 -5 0 -10
-5 -10 -11z"/>
<path d="M1236 1262 c-12 -19 23 -37 40 -19 12 11 26 8 18 -4 -4 -7 -1 -10 6
-7 8 2 16 10 18 18 3 7 0 10 -6 6 -6 -3 -13 -2 -17 4 -3 5 -11 10 -16 10 -6 0
-7 -4 -4 -10 3 -6 -4 -10 -17 -10 -18 0 -20 2 -8 10 9 6 10 10 3 10 -6 0 -14
-4 -17 -8z"/>
<path d="M1340 1260 c0 -5 5 -10 10 -10 6 0 10 5 10 10 0 6 -4 10 -10 10 -5 0
-10 -4 -10 -10z"/>
<path d="M1600 1230 c0 -5 7 -10 16 -10 8 0 12 5 9 10 -3 6 -10 10 -16 10 -5
0 -9 -4 -9 -10z"/>
<path d="M1080 1141 c-23 -7 -22 -9 18 -21 45 -14 71 -8 80 18 4 13 -56 15
-98 3z m75 -11 c-3 -5 -15 -10 -26 -10 -10 0 -19 5 -19 10 0 6 12 10 26 10 14
0 23 -4 19 -10z"/>
<path d="M1367 1403 c-13 -12 -7 -53 7 -53 20 0 29 16 21 40 -6 20 -17 25 -28
13z m23 -33 c0 -5 -4 -10 -10 -10 -5 0 -10 5 -10 10 0 6 5 10 10 10 6 0 10 -4
10 -10z"/>
<path d="M131 1091 c-1 -100 3 -170 8 -166 5 3 12 -1 14 -7 4 -8 6 -7 6 4 1 9
4 25 7 35 6 17 6 17 -7 0 -12 -15 -13 2 -8 120 3 76 9 147 14 157 6 15 5 17
-4 11 -8 -4 -17 -2 -21 6 -5 7 -9 -65 -9 -160z"/>
<path d="M680 1125 c0 -22 3 -26 9 -16 7 11 10 7 14 -15 4 -27 4 -27 6 -3 0
14 -6 34 -14 45 -14 18 -14 18 -15 -11z"/>
<path d="M381 1124 c0 -11 3 -14 6 -6 3 7 2 16 -1 19 -3 4 -6 -2 -5 -13z"/>
<path d="M410 1119 c0 -6 8 -8 19 -4 15 5 18 1 15 -22 -4 -24 -3 -25 5 -8 9
19 10 19 10 -2 1 -12 -2 -23 -6 -26 -5 -2 -1 -2 7 0 12 3 13 2 3 -8 -7 -7 -13
-20 -12 -28 0 -11 2 -12 6 -3 2 6 9 10 14 6 5 -3 9 3 9 12 0 16 1 16 20 -1 20
-18 20 -17 20 38 l0 57 -55 0 c-32 0 -55 -4 -55 -11z m100 -39 c0 -38 -1 -39
-20 -28 -11 7 -20 18 -20 25 0 6 -3 18 -6 27 -5 12 0 16 20 16 24 0 26 -4 26
-40z"/>
<path d="M681 1074 c0 -11 3 -14 6 -6 3 7 2 16 -1 19 -3 4 -6 -2 -5 -13z"/>
<path d="M112 1040 c0 -19 2 -27 5 -17 2 9 2 25 0 35 -3 9 -5 1 -5 -18z"/>
<path d="M706 1043 c-6 -15 -9 -15 -17 -3 -9 12 -10 12 -5 -3 3 -10 6 -31 6
-45 1 -34 14 -12 23 36 7 35 3 42 -7 15z"/>
<path d="M462 980 c0 -14 2 -19 5 -12 2 6 2 18 0 25 -3 6 -5 1 -5 -13z"/>
<path d="M298 913 c7 -3 16 -2 19 1 4 3 -2 6 -13 5 -11 0 -14 -3 -6 -6z"/>
<path d="M2020 2276 c0 -10 28 -13 41 -5 10 6 7 9 -13 9 -16 0 -28 -2 -28 -4z"/>
<path d="M2088 2273 c6 -2 18 -2 25 0 6 3 1 5 -13 5 -14 0 -19 -2 -12 -5z"/>
<path d="M2143 2273 c9 -2 23 -2 30 0 6 3 -1 5 -18 5 -16 0 -22 -2 -12 -5z"/>
<path d="M2218 2273 c17 -2 47 -2 65 0 17 2 3 4 -33 4 -36 0 -50 -2 -32 -4z"/>
<path d="M2383 2273 c15 -2 39 -2 55 0 15 2 2 4 -28 4 -30 0 -43 -2 -27 -4z"/>
<path d="M1905 2200 c3 -5 17 -10 31 -10 14 0 22 4 19 10 -3 6 -17 10 -31 10
-14 0 -22 -4 -19 -10z"/>
<path d="M2100 2200 c-34 -11 140 -11 200 -1 35 7 21 9 -65 9 -60 0 -121 -4
-135 -8z"/>
<path d="M2351 2206 c2 -2 45 -7 94 -10 65 -3 79 -2 50 4 -41 9 -152 13 -144
6z"/>
<path d="M2663 2193 c65 -2 168 -2 230 0 62 1 9 3 -118 3 -126 0 -177 -2 -112
-3z"/>
<path d="M53 2173 c32 -2 81 -2 110 0 29 2 3 3 -58 3 -61 0 -84 -1 -52 -3z"/>
<path d="M233 2173 c9 -2 23 -2 30 0 6 3 -1 5 -18 5 -16 0 -22 -2 -12 -5z"/>
<path d="M583 2173 c9 -2 25 -2 35 0 9 3 1 5 -18 5 -19 0 -27 -2 -17 -5z"/>
<path d="M1925 2130 c-3 -5 1 -10 9 -10 9 0 16 5 16 10 0 6 -4 10 -9 10 -6 0
-13 -4 -16 -10z"/>
<path d="M770 2121 c0 -5 9 -7 20 -4 11 3 20 7 20 9 0 2 -9 4 -20 4 -11 0 -20
-4 -20 -9z"/>
<path d="M853 2123 c20 -2 54 -2 75 0 20 2 3 4 -38 4 -41 0 -58 -2 -37 -4z"/>
<path d="M1985 2125 c23 -8 149 -12 130 -4 -11 4 -47 8 -80 8 -33 -1 -55 -2
-50 -4z"/>
<path d="M643 2113 c15 -2 37 -2 50 0 12 2 0 4 -28 4 -27 0 -38 -2 -22 -4z"/>
<path d="M728 2113 c7 -3 16 -2 19 1 4 3 -2 6 -13 5 -11 0 -14 -3 -6 -6z"/>
<path d="M2163 2113 c15 -2 37 -2 50 0 12 2 0 4 -28 4 -27 0 -38 -2 -22 -4z"/>
<path d="M2278 2113 c23 -2 61 -2 85 0 23 2 4 4 -43 4 -47 0 -66 -2 -42 -4z"/>
<path d="M210 2098 c-68 -18 -116 -24 -144 -17 -15 4 -37 3 -49 -2 -21 -9 -21
-9 2 -5 13 3 33 1 45 -4 18 -6 50 -3 146 14 8 2 26 8 40 14 31 13 7 13 -40 0z"/>
<path d="M533 2103 c15 -2 39 -2 55 0 15 2 2 4 -28 4 -30 0 -43 -2 -27 -4z"/>
<path d="M2431 2106 c2 -2 94 -7 204 -10 110 -4 237 -10 283 -14 45 -4 82 -5
82 -2 0 9 -331 30 -464 30 -60 0 -107 -2 -105 -4z"/>
<path d="M295 2086 c21 -18 101 -15 175 4 28 7 24 8 -20 3 -73 -9 -130 -8
-155 1 -20 8 -20 8 0 -8z"/>
<path d="M2885 2030 c-3 -5 7 -10 22 -12 14 -2 29 -9 31 -17 3 -10 0 -12 -12
-8 -10 4 -15 3 -11 -3 3 -6 25 -9 48 -9 30 2 34 3 15 6 -16 2 -28 10 -28 18 0
15 -57 38 -65 25z"/>
<path d="M1 2006 c2 -2 31 -6 64 -9 37 -3 51 -2 35 3 -25 8 -107 13 -99 6z"/>
<path d="M190 2000 l-35 -7 43 -2 c27 0 41 3 37 9 -3 6 -7 9 -8 9 -1 -1 -18
-5 -37 -9z"/>
<path d="M288 2003 c12 -2 30 -2 40 0 9 3 -1 5 -23 4 -22 0 -30 -2 -17 -4z"/>
<path d="M555 2000 l-50 -7 58 -1 c37 -1 56 2 52 8 -3 6 -7 9 -8 8 -1 0 -24
-4 -52 -8z"/>
<path d="M1027 1977 c-68 -38 -127 -84 -127 -98 0 -6 18 5 41 24 22 20 65 48
95 64 30 15 54 31 54 36 0 10 2 11 -63 -26z"/>
<path d="M383 1993 c9 -2 25 -2 35 0 9 3 1 5 -18 5 -19 0 -27 -2 -17 -5z"/>
<path d="M60 1963 c0 -5 84 -7 187 -5 348 4 380 8 96 10 -156 1 -283 -1 -283
-5z"/>
<path d="M617 1948 c-10 -11 -25 -17 -32 -14 -8 3 -17 1 -20 -4 -13 -20 35 -9
62 15 15 13 24 24 18 24 -5 0 -18 -10 -28 -21z"/>
<path d="M1249 1924 c-26 -57 -36 -114 -20 -114 6 0 11 11 11 24 0 13 6 29 14
35 8 6 16 24 18 39 3 15 9 35 13 45 4 10 3 17 -4 17 -7 0 -21 -21 -32 -46z m1
-41 c-11 -17 -11 -17 -6 0 3 10 6 24 7 30 0 9 2 9 5 0 3 -7 0 -20 -6 -30z"/>
<path d="M2223 1959 c12 -7 27 -7 45 0 25 9 24 9 -18 10 -36 0 -41 -2 -27 -10z"/>
<path d="M2495 1963 c141 -3 201 -7 207 -15 4 -7 10 -9 15 -5 20 20 -37 27
-222 25 l-200 -3 200 -2z"/>
<path d="M1295 1908 c-30 -68 -42 -114 -26 -104 6 4 11 13 11 21 0 31 74 34
107 3 20 -19 25 -20 37 -7 7 8 16 28 20 44 6 28 5 29 -8 11 -14 -17 -16 -17
-31 -2 -9 9 -27 16 -40 16 -27 0 -48 30 -39 54 3 9 3 16 0 16 -4 0 -18 -24
-31 -52z m68 -32 c19 -4 38 -13 41 -22 3 -8 10 -12 16 -9 6 3 7 -1 4 -10 -6
-14 -8 -14 -24 0 -25 22 -71 34 -98 24 -13 -5 -21 -5 -18 0 3 4 10 21 17 37
11 28 11 28 19 8 6 -14 21 -24 43 -28z"/>
<path d="M93 1928 c12 -7 105 -3 113 5 3 3 -24 4 -59 3 -36 0 -60 -4 -54 -8z"/>
<path d="M260 1927 c42 -13 157 -13 169 -1 3 3 -26 4 -64 3 -39 -1 -88 1 -110
4 l-40 7 45 -13z"/>
<path d="M440 1935 c0 -2 13 -8 29 -13 22 -8 29 -8 25 1 -3 10 -54 21 -54 12z"/>
<path d="M535 1931 c-3 -6 -11 -9 -16 -6 -5 4 -9 1 -9 -4 0 -13 10 -14 30 -1
8 5 12 12 8 15 -3 4 -9 1 -13 -4z"/>
<path d="M2272 1935 c8 -8 87 -12 83 -4 -3 4 -23 7 -46 7 -23 1 -39 -1 -37 -3z"/>
<path d="M2668 1933 c7 -3 16 -2 19 1 4 3 -2 6 -13 5 -11 0 -14 -3 -6 -6z"/>
<path d="M832 1857 c-17 -24 -33 -57 -36 -73 -6 -27 -5 -26 10 6 9 19 27 50
41 68 14 18 23 36 20 38 -3 3 -19 -14 -35 -39z"/>
<path d="M1678 1855 c-4 -27 -3 -70 1 -95 l7 -45 8 35 c6 23 5 35 -3 38 -6 2
-11 16 -10 30 l1 27 8 -25 8 -25 0 25 c0 14 -3 39 -7 55 -6 27 -8 26 -13 -20z"/>
<path d="M59 1869 c-10 -6 -5 -9 19 -9 17 0 32 4 32 8 0 11 -34 12 -51 1z"/>
<path d="M157 1869 c7 -7 15 -10 18 -7 3 3 -2 9 -12 12 -14 6 -15 5 -6 -5z"/>
<path d="M1495 1850 c-4 -12 -5 -24 -2 -27 3 -2 8 5 12 17 4 12 5 24 2 27 -3
2 -8 -5 -12 -17z"/>
<path d="M1639 1833 l5 -38 6 30 c7 31 4 45 -9 45 -4 0 -5 -17 -2 -37z"/>
<path d="M120 1840 l-45 -7 48 -1 c26 -1 47 3 47 8 0 6 -1 9 -2 8 -2 0 -23 -4
-48 -8z"/>
<path d="M829 1786 c-11 -20 -26 -36 -32 -36 -6 0 -8 -3 -4 -6 3 -4 -6 -25
-21 -48 -37 -55 -52 -91 -52 -125 l0 -28 -92 -3 c-51 -1 -165 -2 -253 -2 -139
0 -161 -2 -167 -17 -10 -25 -9 -112 3 -154 9 -33 14 -38 32 -33 12 3 57 6 100
6 71 0 77 2 77 20 0 26 4 28 135 34 60 4 127 11 148 17 31 8 42 8 48 -3 13
-20 11 -36 -8 -47 -16 -9 -16 -10 -2 -11 9 0 19 7 23 15 4 11 14 14 33 10 l28
-6 -27 16 c-43 24 -61 70 -61 152 1 54 6 82 24 118 30 59 52 80 39 36 -5 -17
-5 -31 0 -31 4 0 11 17 15 37 4 20 16 55 27 76 25 50 15 61 -13 13z m-459
-285 c0 -15 11 -44 24 -63 16 -24 22 -44 19 -62 -5 -26 -7 -26 -89 -26 -72 0
-85 3 -94 19 -14 27 -13 134 2 149 7 7 39 12 75 12 63 0 63 0 63 -29z m53 -57
c11 -12 25 40 16 58 -5 9 -9 19 -9 22 0 12 78 6 87 -6 15 -20 23 -48 14 -48
-5 0 -14 12 -19 28 -8 22 -9 16 -8 -35 l2 -63 -32 0 c-39 0 -84 47 -84 89 0
45 15 46 21 2 3 -22 8 -44 12 -47z m290 79 c9 -15 19 -98 12 -91 -5 4 -13 4
-19 -1 -6 -4 -23 -11 -38 -15 -21 -5 -28 -3 -28 9 0 8 -4 15 -10 15 -5 0 -10
-7 -10 -15 0 -10 -10 -15 -34 -15 -19 0 -41 -3 -50 -6 -13 -5 -16 1 -16 26 0
29 2 32 25 26 27 -7 34 8 11 21 -7 4 -16 18 -20 29 -6 21 -3 22 83 23 49 1 91
-2 94 -6z m-280 -48 c-7 -21 -13 -19 -13 6 0 11 4 18 10 14 5 -3 7 -12 3 -20z"/>
<path d="M68 1773 c39 -2 105 -2 145 0 39 1 7 3 -73 3 -80 0 -112 -2 -72 -3z"/>
<path d="M318 1773 c7 -3 16 -2 19 1 4 3 -2 6 -13 5 -11 0 -14 -3 -6 -6z"/>
<path d="M393 1758 c-6 -11 49 -10 65 0 8 5 -2 8 -24 8 -20 -1 -38 -4 -41 -8z"/>
<path d="M2388 1763 c12 -2 32 -2 45 0 12 2 2 4 -23 4 -25 0 -35 -2 -22 -4z"/>
<path d="M38 1753 c6 -2 18 -2 25 0 6 3 1 5 -13 5 -14 0 -19 -2 -12 -5z"/>
<path d="M498 1753 c12 -2 30 -2 40 0 9 3 -1 5 -23 4 -22 0 -30 -2 -17 -4z"/>
<path d="M628 1753 c7 -3 16 -2 19 1 4 3 -2 6 -13 5 -11 0 -14 -3 -6 -6z"/>
<path d="M864 1748 c-20 -27 -59 -121 -78 -187 -19 -66 -20 -108 -3 -141 14
-29 63 -39 52 -11 -14 34 -22 115 -16 159 l6 47 6 -45 c6 -43 6 -43 7 15 0 37
8 81 21 114 20 55 22 73 5 49z m-49 -318 c3 -6 3 -15 -1 -21 -12 -20 -24 14
-23 66 l1 50 9 -43 c4 -23 11 -47 14 -52z"/>
<path d="M1074 1736 c-9 -15 -14 -29 -12 -32 3 -2 13 7 22 22 10 14 15 28 13
31 -3 2 -13 -7 -23 -21z"/>
<path d="M2580 1744 c69 -7 140 -17 159 -23 19 -6 37 -9 39 -6 14 13 -182 45
-273 43 -28 0 6 -6 75 -14z"/>
<path d="M2263 1743 c26 -2 67 -2 90 0 23 2 2 3 -48 3 -49 0 -68 -1 -42 -3z"/>
<path d="M2460 1730 c30 -5 73 -8 95 -8 39 1 38 1 -10 8 -27 5 -70 8 -95 8
l-45 -1 55 -7z"/>
<path d="M3 1636 c4 -10 7 -30 8 -44 0 -15 3 -21 6 -14 3 8 32 12 94 12 49 0
89 3 89 8 0 4 -41 5 -91 3 -89 -3 -91 -3 -87 20 2 12 -3 24 -11 27 -10 3 -12
0 -8 -12z"/>
<path d="M220 1600 c0 -5 14 -10 32 -10 36 0 35 4 -4 14 -17 4 -28 2 -28 -4z"/>
<path d="M2021 1600 c0 -24 25 -75 31 -65 3 6 -2 26 -13 45 -10 19 -18 28 -18
20z"/>
<path d="M6 1544 c-3 -9 -6 -25 -5 -37 1 -16 4 -12 10 11 8 27 13 31 24 22 14
-11 35 -6 35 8 0 15 -58 11 -64 -4z"/>
<path d="M82 1531 c-10 -6 -9 -11 4 -22 16 -13 17 -12 10 6 -4 11 -4 16 0 13
9 -10 11 -177 1 -171 -4 2 -26 1 -50 -2 -40 -6 -43 -9 -44 -38 -1 -29 -1 -30
6 -7 6 22 14 26 61 30 l55 5 3 55 c3 62 -9 132 -23 137 -6 1 -16 -1 -23 -6z"/>
<path d="M1619 1444 c-5 -15 -7 -29 -5 -32 5 -4 10 6 22 46 7 23 -7 12 -17
-14z"/>
<path d="M2416 1384 c-11 -8 -16 -14 -11 -14 4 0 0 -9 -10 -20 -10 -11 -13
-20 -7 -20 11 0 57 58 51 65 -2 2 -13 -3 -23 -11z"/>
<path d="M2055 1343 c18 -54 26 -103 17 -103 -5 0 -6 -15 -4 -34 4 -35 -21
-96 -40 -96 -11 0 -6 -109 7 -129 3 -6 19 -11 36 -11 28 0 29 1 27 48 l-1 47
-4 -42 c-4 -37 -7 -43 -27 -43 -18 0 -25 7 -30 31 -10 52 -7 68 19 107 17 27
26 57 31 109 l7 71 40 -12 c56 -16 60 -36 8 -36 l-41 0 0 -74 c0 -41 -3 -81
-6 -90 -3 -9 -1 -16 5 -16 7 0 11 30 11 85 0 83 1 85 24 85 39 0 57 -11 72
-44 13 -30 13 -30 14 -5 0 42 -54 116 -114 154 -30 19 -57 35 -59 35 -3 0 1
-17 8 -37z m35 -14 c0 -5 4 -8 8 -5 4 2 14 1 22 -5 11 -6 7 -9 -16 -9 -21 0
-31 5 -31 15 0 8 4 15 9 15 4 0 8 -5 8 -11z"/>
<path d="M2790 1327 c0 -42 -4 -57 -14 -57 -15 0 -26 -22 -25 -48 0 -10 5 -4
11 11 7 19 16 27 27 24 13 -3 16 5 15 54 0 32 -3 62 -7 65 -4 4 -7 -18 -7 -49z"/>
<path d="M1950 1336 c0 -19 -3 -43 -6 -53 -4 -14 -4 -15 4 -3 14 22 22 90 11
90 -5 0 -9 -15 -9 -34z"/>
<path d="M1987 1363 c-4 -3 -6 -47 -5 -97 1 -57 3 -72 5 -41 5 57 18 78 28 45
5 -15 2 -26 -6 -31 -11 -7 -10 -9 4 -9 14 0 17 -9 18 -52 0 -38 3 -47 8 -33
11 27 -3 113 -28 170 -28 62 -5 45 25 -19 13 -28 24 -45 24 -38 0 18 -49 112
-59 112 -4 0 -11 -3 -14 -7z"/>
<path d="M497 1349 c-10 -6 -30 -8 -44 -5 -16 5 -22 3 -18 -4 4 -6 72 -9 193
-8 103 1 163 3 134 5 -29 2 -51 7 -48 11 7 12 -197 13 -217 1z m86 -6 c-7 -2
-21 -2 -30 0 -10 3 -4 5 12 5 17 0 24 -2 18 -5z"/>
<path d="M1915 1274 c0 -71 7 -94 18 -55 5 22 -3 120 -12 125 -3 2 -6 -29 -6
-70z"/>
<path d="M323 1323 c20 -2 54 -2 75 0 20 2 3 4 -38 4 -41 0 -58 -2 -37 -4z"/>
<path d="M45 1290 l-30 -5 -1 -100 c-2 -111 4 -101 8 15 l3 75 30 3 c17 2 34
7 38 11 9 9 -6 9 -48 1z"/>
<path d="M2606 1273 l81 -4 2 -66 c3 -93 11 -93 11 0 l0 77 -87 -2 -88 -2 81
-3z"/>
<path d="M2556 1233 c-8 -27 -4 -83 6 -83 4 0 8 20 8 45 0 43 1 45 29 45 25 0
30 -5 34 -27 4 -26 4 -26 6 5 1 31 0 32 -38 32 -29 0 -41 -5 -45 -17z"/>
<path d="M2002 1195 c0 -16 2 -22 5 -12 2 9 2 23 0 30 -3 6 -5 -1 -5 -18z"/>
<path d="M2176 1212 c-7 -11 -2 -142 6 -142 3 0 6 34 5 75 -1 76 -2 81 -11 67z"/>
<path d="M2646 1185 c-8 -32 -6 -188 3 -180 5 6 11 205 6 205 -2 0 -6 -11 -9
-25z"/>
<path d="M1630 1125 c-13 -63 -6 -103 15 -85 18 15 50 -104 42 -160 -6 -46 -3
-49 14 -17 27 49 27 102 -2 189 -32 96 -38 85 -9 -17 11 -38 20 -83 19 -100 0
-21 -6 -9 -20 40 -32 122 -41 166 -36 186 3 10 1 19 -3 19 -5 0 -14 -25 -20
-55z m16 -73 c-12 -11 -18 7 -10 30 l8 23 4 -23 c2 -13 1 -26 -2 -30z"/>
<path d="M1960 1156 c0 -14 5 -26 10 -26 6 0 10 9 10 19 0 11 -4 23 -10 26 -6
4 -10 -5 -10 -19z"/>
<path d="M1990 1110 c-9 -6 -10 -10 -3 -10 6 0 15 5 18 10 8 12 4 12 -15 0z"/>
<path d="M2210 1106 c0 -9 5 -16 10 -16 6 0 10 4 10 9 0 6 -4 13 -10 16 -5 3
-10 -1 -10 -9z"/>
<path d="M1997 1028 c7 -82 13 -87 13 -10 0 33 -4 63 -9 66 -5 4 -7 -20 -4
-56z"/>
<path d="M1962 1050 c0 -14 2 -19 5 -12 2 6 2 18 0 25 -3 6 -5 1 -5 -13z"/>
<path d="M1961 1003 c-1 -12 4 -25 9 -28 12 -7 12 2 0 30 -8 19 -9 19 -9 -2z"/>
<path d="M1730 955 c0 -15 18 -40 24 -34 3 3 -1 14 -9 25 -8 10 -14 15 -15 9z"/>
<path d="M1763 927 c1 -11 12 -23 24 -28 17 -6 23 -17 24 -41 l1 -33 10 27 c9
25 6 31 -25 61 -29 27 -35 29 -34 14z"/>
<path d="M1420 933 c0 -16 25 -73 32 -73 11 0 10 2 -7 44 -14 33 -25 46 -25
29z"/>
<path d="M1672 915 c0 -16 2 -22 5 -12 2 9 2 23 0 30 -3 6 -5 -1 -5 -18z"/>
<path d="M1613 894 c3 -11 8 -29 12 -41 4 -15 14 -23 28 -22 l22 0 -22 9 c-15
6 -23 18 -23 34 0 14 -5 28 -11 32 -7 4 -9 0 -6 -12z"/>
<path d="M1742 900 c0 -8 4 -26 8 -40 6 -20 8 -21 8 -5 0 11 -3 29 -8 40 -5
12 -8 14 -8 5z"/>
<path d="M1323 885 c23 -82 31 -105 40 -105 5 0 6 8 2 18 -4 9 -12 33 -17 52
-5 19 -14 40 -20 45 -7 7 -8 4 -5 -10z"/>
<path d="M1770 875 c0 -11 5 -27 10 -35 8 -12 10 -12 10 5 0 11 -5 27 -10 35
-8 12 -10 12 -10 -5z"/>
<path d="M1720 862 c0 -12 -4 -22 -10 -22 -5 0 -10 -4 -10 -10 0 -5 4 -10 10
-10 11 0 25 48 16 57 -3 4 -6 -3 -6 -15z"/>
<path d="M1264 853 c3 -10 10 -37 16 -60 6 -24 15 -43 20 -43 5 0 0 27 -12 60
-11 33 -22 60 -25 60 -2 0 -2 -8 1 -17z"/>
<path d="M1202 848 c3 -7 13 -37 23 -65 11 -29 22 -53 25 -53 10 0 -34 130
-44 130 -4 0 -6 -6 -4 -12z"/>
<path d="M1171 838 c-1 -21 38 -113 45 -106 3 3 -2 21 -10 39 -7 19 -19 45
-24 59 -7 16 -11 19 -11 8z"/>
<path d="M1740 820 c8 -5 26 -9 40 -9 23 0 23 1 5 9 -11 5 -29 9 -40 9 -17 1
-17 -1 -5 -9z"/>
<path d="M1485 770 c-3 -5 -1 -10 4 -10 6 0 11 5 11 10 0 6 -2 10 -4 10 -3 0
-8 -4 -11 -10z"/>
<path d="M2380 595 c0 -14 5 -25 10 -25 6 0 10 11 10 25 0 14 -4 25 -10 25 -5
0 -10 -11 -10 -25z"/>
<path d="M280 588 c0 -13 -11 -45 -24 -73 -21 -43 -25 -46 -25 -23 -1 15 -6
39 -12 55 -12 28 -12 27 -27 -30 -11 -40 -20 -56 -29 -52 -9 3 -16 -6 -20 -25
-3 -17 -10 -33 -14 -36 -5 -3 -9 -16 -9 -30 0 -13 -5 -33 -12 -43 -6 -10 -8
-26 -4 -37 8 -18 8 -18 16 1 5 11 9 37 9 58 1 20 6 37 11 37 6 0 10 12 10 28
1 24 2 25 14 10 11 -16 14 -11 26 37 7 30 16 55 20 55 4 0 10 -19 14 -42 6
-38 8 -40 20 -22 14 20 56 128 56 144 0 6 -4 10 -10 10 -5 0 -10 -10 -10 -22z"/>
<path d="M1893 584 c2 -2 48 -8 103 -14 303 -32 336 -32 278 -2 -22 12 -70 16
-207 17 -97 1 -176 0 -174 -1z m360 -16 c15 -11 7 -12 -45 -9 -52 4 -58 6 -33
12 46 11 60 10 78 -3z"/>
<path d="M1405 530 c-3 -5 15 -7 47 -3 70 8 74 13 10 13 -28 0 -53 -4 -57 -10z"/>
<path d="M1524 531 c8 -13 66 -32 66 -21 0 4 -14 13 -31 19 -39 13 -42 14 -35
2z"/>
<path d="M1338 513 c-21 -8 -38 -20 -38 -25 0 -5 3 -8 8 -6 4 3 22 10 40 17
17 7 32 17 32 22 0 11 3 11 -42 -8z"/>
<path d="M80 448 c0 -30 -6 -98 -14 -151 -19 -123 -11 -157 43 -181 23 -11 53
-16 77 -14 34 4 39 7 37 29 l-3 24 15 -27 c15 -26 16 -26 112 -23 54 1 78 1
53 -2 -25 -2 -52 -7 -60 -10 -8 -4 -33 -7 -55 -7 -40 -1 -40 -1 -43 -44 -2
-29 0 -42 7 -37 6 3 11 22 11 41 0 27 4 34 19 34 11 0 23 -5 26 -11 5 -7 15
-5 31 5 18 13 53 16 154 16 80 0 130 4 130 10 0 8 -83 16 -114 11 -4 -1 -14 3
-20 9 -7 5 -15 8 -17 6 -3 -3 -52 -6 -109 -7 l-105 -2 -10 31 c-12 40 -24 41
-31 2 -7 -34 -28 -43 -69 -31 -56 17 -64 23 -70 53 -9 37 4 170 15 163 9 -6 4
155 -5 163 -3 3 -5 -19 -5 -50z"/>
<path d="M1649 456 c19 -20 39 -36 45 -36 13 0 -34 49 -59 62 -12 6 -6 -4 14
-26z"/>
<path d="M2260 470 c-13 -8 -12 -10 3 -10 9 0 17 5 17 10 0 12 -1 12 -20 0z"/>
<path d="M2894 469 c-3 -6 0 -15 7 -21 11 -7 9 -8 -6 -6 -16 2 -21 -3 -23 -27
-2 -21 0 -26 6 -16 8 11 10 11 15 0 5 -15 27 31 27 56 0 19 -17 28 -26 14z"/>
<path d="M2960 456 c0 -8 -7 -16 -15 -20 -8 -3 -15 -15 -15 -27 0 -16 5 -20
20 -16 10 3 21 0 23 -6 2 -6 9 -7 16 -3 9 6 8 11 -6 21 -10 7 -21 11 -24 9 -4
-2 -2 7 4 21 7 14 18 23 25 20 6 -2 12 0 12 5 0 6 -9 10 -20 10 -11 0 -20 -6
-20 -14z"/>
<path d="M2210 450 c0 -5 5 -10 10 -10 6 0 10 5 10 10 0 6 -4 10 -10 10 -5 0
-10 -4 -10 -10z"/>
<path d="M1419 428 c-14 -27 -7 -371 9 -408 9 -19 9 -7 4 50 -9 101 -9 346 1
356 4 4 15 0 24 -9 20 -20 52 -228 53 -339 0 -52 4 -78 11 -78 22 0 -19 388
-44 418 -24 29 -46 33 -58 10z"/>
<path d="M1577 398 c27 -29 67 -82 87 -118 19 -36 36 -58 36 -49 0 40 -134
219 -164 219 -6 0 13 -24 41 -52z"/>
<path d="M2164 435 c-10 -8 -14 -15 -8 -15 5 0 19 7 30 15 10 8 14 15 8 15 -5
0 -19 -7 -30 -15z"/>
<path d="M2250 439 c0 -6 5 -19 11 -30 5 -11 19 -68 30 -127 19 -99 36 -169
61 -249 14 -46 32 -43 24 4 -3 21 -13 85 -21 143 -12 82 -24 123 -55 188 -37
77 -50 96 -50 71z m83 -212 c9 -45 18 -102 21 -127 5 -38 4 -40 -4 -15 -23 74
-58 259 -46 242 7 -9 20 -54 29 -100z"/>
<path d="M2440 423 c0 -19 31 -266 41 -333 6 -41 16 -79 22 -85 6 -7 7 3 3 30
-3 22 -13 94 -21 160 -8 66 -17 134 -20 150 l-5 30 22 -35 c45 -73 168 -322
162 -331 -3 -5 2 -9 10 -9 21 0 -21 96 -119 275 -41 75 -75 141 -75 146 0 5
-4 9 -10 9 -5 0 -10 -3 -10 -7z"/>
<path d="M2090 410 c-24 -15 -7 -19 20 -5 15 8 19 14 10 14 -8 1 -22 -3 -30
-9z"/>
<path d="M1700 380 c35 -49 72 -143 76 -190 2 -25 6 -67 9 -95 5 -57 3 -52
-37 65 l-28 85 25 -30 c13 -16 24 -25 25 -19 0 5 -13 23 -30 39 -22 21 -30 25
-30 13 0 -22 70 -231 82 -243 6 -6 8 29 7 94 -1 85 -6 115 -26 165 -14 34 -25
69 -25 79 1 9 -3 15 -7 12 -5 -2 -8 3 -7 13 0 9 -4 16 -11 15 -7 -2 -10 4 -7
12 4 10 0 15 -16 15 l-21 0 21 -30z"/>
<path d="M2362 350 c5 -17 15 -33 21 -37 7 -4 8 0 3 13 -5 10 -11 27 -13 37
-3 9 -9 17 -14 17 -4 0 -3 -14 3 -30z"/>
<path d="M2045 330 c6 -47 74 -322 81 -329 10 -10 3 34 -17 105 -11 41 -19 77
-17 79 2 2 18 -39 37 -91 18 -52 37 -94 42 -94 5 0 -1 24 -13 52 -26 65 -88
257 -88 273 0 6 -7 20 -16 31 -14 18 -15 16 -9 -26z m34 -80 c0 -9 -4 -8 -9 5
-5 11 -9 27 -9 35 0 9 4 8 9 -5 5 -11 9 -27 9 -35z m8 -42 c-3 -8 -6 -5 -6 6
-1 11 2 17 5 13 3 -3 4 -12 1 -19z"/>
<path d="M2145 205 c40 -85 75 -165 78 -177 4 -12 9 -20 12 -16 3 3 -2 24 -11
47 -9 23 -14 44 -11 47 4 4 28 -48 31 -68 2 -11 26 -33 26 -23 -1 21 -181 345
-192 345 -4 0 26 -70 67 -155z m65 -87 c0 -17 -10 -6 -25 25 l-16 32 20 -25
c11 -14 21 -28 21 -32z"/>
<path d="M1953 330 c-28 -11 -28 -18 -4 -95 10 -33 31 -99 46 -147 22 -73 30
-88 47 -88 15 0 18 4 13 18 -17 41 -95 271 -95 279 0 5 10 9 21 10 26 2 33 8
24 22 -7 13 -22 13 -52 1z"/>
<path d="M1994 240 c9 -29 96 -233 101 -238 10 -11 4 9 -29 90 -29 73 -85 187
-72 148z"/>
<path d="M646 204 c-4 -9 -4 -19 -2 -21 8 -8 26 8 26 23 0 19 -16 18 -24 -2z"/>
<path d="M1881 155 c-2 -19 42 -155 50 -155 4 0 -3 30 -15 67 -33 96 -34 99
-35 88z"/>
<path d="M1717 73 c3 -32 9 -62 13 -67 5 -5 7 11 5 35 l-4 44 11 -42 c6 -24
15 -43 20 -43 5 0 7 3 5 8 -3 4 -12 33 -21 65 -9 31 -20 57 -25 57 -5 0 -6
-26 -4 -57z"/>
<path d="M170 72 c0 -4 -15 -6 -34 -4 -27 3 -40 -2 -60 -22 -26 -25 -34 -46
-17 -46 5 0 11 9 14 20 6 23 49 45 71 37 9 -4 16 -18 16 -32 0 -14 4 -25 10
-25 5 0 7 6 4 13 -3 8 0 26 5 40 7 17 7 27 1 27 -6 0 -10 -4 -10 -8z"/>
<path d="M197 74 c-11 -11 -8 -62 3 -69 6 -4 10 8 11 27 1 31 1 32 9 8 9 -24
9 -24 7 4 -2 29 -17 43 -30 30z"/>
<path d="M595 45 c-15 -20 -25 -39 -22 -41 3 -3 17 11 32 31 15 19 26 38 23
41 -3 2 -18 -12 -33 -31z"/>
<path d="M422 37 c4 -42 32 -44 36 -2 2 25 -1 31 -18 32 -18 2 -21 -3 -18 -30z
m28 -8 c0 -5 -4 -9 -10 -9 -5 0 -10 7 -10 16 0 8 5 12 10 9 6 -3 10 -10 10
-16z"/>
<path d="M956 45 c-3 -9 -6 -24 -6 -33 0 -15 1 -15 16 0 12 11 13 21 7 33 -9
16 -10 16 -17 0z"/>
<path d="M2768 3 c7 -3 16 -2 19 1 4 3 -2 6 -13 5 -11 0 -14 -3 -6 -6z"/>
</g>
</svg>
